<?xml version="1.0" encoding="UTF-8" standalone="no"?>
<!DOCTYPE svg PUBLIC "-//W3C//DTD SVG 1.1//EN"
 "http://www.w3.org/Graphics/SVG/1.1/DTD/svg11.dtd">
<!-- Generated by graphviz version 2.43.0 (0)
 -->
<!-- Title: rezolus Pages: 1 -->
<svg width="1622pt" height="328pt"
 viewBox="0.00 0.00 1622.00 327.50" xmlns="http://www.w3.org/2000/svg" xmlns:xlink="http://www.w3.org/1999/xlink">
<g id="graph0" class="graph" transform="scale(1 1) rotate(0) translate(4 323.5)">
<title>rezolus</title>
<polygon fill="white" stroke="transparent" points="-4,4 -4,-323.5 1618,-323.5 1618,4 -4,4"/>
<text text-anchor="middle" x="807" y="-297.9" font-family="Helvetica,sans-Serif" font-size="22.00">What you can do with Rezolus</text>
<!-- system -->
<g id="node1" class="node">
<title>system</title>
<path fill="#e8f5e0" stroke="#7cb342" stroke-width="1.4" d="M187,-176.5C187,-176.5 12,-176.5 12,-176.5 6,-176.5 0,-170.5 0,-164.5 0,-164.5 0,-121.5 0,-121.5 0,-115.5 6,-109.5 12,-109.5 12,-109.5 187,-109.5 187,-109.5 193,-109.5 199,-115.5 199,-121.5 199,-121.5 199,-164.5 199,-164.5 199,-170.5 193,-176.5 187,-176.5"/>
<text text-anchor="start" x="47" y="-156.3" font-family="Helvetica,sans-Serif" font-weight="bold" font-size="14.00">Your systems</text>
<text text-anchor="start" x="16" y="-144.7" font-family="Helvetica,sans-Serif" font-size="11.00">CPU · GPU · kernel · scheduler</text>
<text text-anchor="start" x="20" y="-133.7" font-family="Helvetica,sans-Serif" font-size="11.00">syscalls · block I/O · network</text>
<text text-anchor="start" x="42" y="-122.7" font-family="Helvetica,sans-Serif" font-size="11.00">containers · services</text>
</g>
<!-- agent -->
<g id="node2" class="node">
<title>agent</title>
<path fill="#bbdefb" stroke="#1976d2" stroke-width="1.8" d="M421,-165.5C421,-165.5 305,-165.5 305,-165.5 299,-165.5 293,-159.5 293,-153.5 293,-153.5 293,-132.5 293,-132.5 293,-126.5 299,-120.5 305,-120.5 305,-120.5 421,-120.5 421,-120.5 427,-120.5 433,-126.5 433,-132.5 433,-132.5 433,-153.5 433,-153.5 433,-159.5 427,-165.5 421,-165.5"/>
<text text-anchor="start" x="309" y="-145.3" font-family="Helvetica,sans-Serif" font-weight="bold" font-size="14.00">rezolus agent</text>
<text text-anchor="start" x="309" y="-133.7" font-family="Helvetica,sans-Serif" font-size="11.00">always&#45;on collector</text>
</g>
<!-- system&#45;&gt;agent -->
<g id="edge1" class="edge">
<title>system&#45;&gt;agent</title>
<path fill="none" stroke="#607d8b" d="M199.36,-143C226.81,-143 256.26,-143 282.46,-143"/>
<polygon fill="#607d8b" stroke="#607d8b" points="282.7,-146.5 292.7,-143 282.7,-139.5 282.7,-146.5"/>
<text text-anchor="middle" x="246" y="-146.4" font-family="Helvetica,sans-Serif" font-size="12.00">collect</text>
</g>
<!-- exporter -->
<g id="node3" class="node">
<title>exporter</title>
<path fill="#e3f2fd" stroke="#1976d2" stroke-width="1.4" d="M770,-287.5C770,-287.5 599,-287.5 599,-287.5 593,-287.5 587,-281.5 587,-275.5 587,-275.5 587,-254.5 587,-254.5 587,-248.5 593,-242.5 599,-242.5 599,-242.5 770,-242.5 770,-242.5 776,-242.5 782,-248.5 782,-254.5 782,-254.5 782,-275.5 782,-275.5 782,-281.5 776,-287.5 770,-287.5"/>
<text text-anchor="start" x="619.5" y="-267.3" font-family="Helvetica,sans-Serif" font-weight="bold" font-size="14.00">rezolus exporter</text>
<text text-anchor="start" x="603" y="-255.7" font-family="Helvetica,sans-Serif" font-size="11.00">Prometheus metrics endpoint</text>
</g>
<!-- agent&#45;&gt;exporter -->
<g id="edge2" class="edge">
<title>agent&#45;&gt;exporter</title>
<path fill="none" stroke="#607d8b" d="M406.94,-165.52C423.32,-173.72 442.32,-182.74 460,-190 504.96,-208.46 556.3,-225.93 598.43,-239.36"/>
<polygon fill="#607d8b" stroke="#607d8b" points="597.51,-242.74 608.1,-242.42 599.62,-236.06 597.51,-242.74"/>
<text text-anchor="middle" x="510" y="-228.4" font-family="Helvetica,sans-Serif" font-size="12.00">expose</text>
</g>
<!-- view -->
<g id="node4" class="node">
<title>view</title>
<path fill="#e3f2fd" stroke="#1976d2" stroke-width="1.4" d="M749,-210.5C749,-210.5 620,-210.5 620,-210.5 614,-210.5 608,-204.5 608,-198.5 608,-198.5 608,-177.5 608,-177.5 608,-171.5 614,-165.5 620,-165.5 620,-165.5 749,-165.5 749,-165.5 755,-165.5 761,-171.5 761,-177.5 761,-177.5 761,-198.5 761,-198.5 761,-204.5 755,-210.5 749,-210.5"/>
<text text-anchor="start" x="635.5" y="-190.3" font-family="Helvetica,sans-Serif" font-weight="bold" font-size="14.00">rezolus view</text>
<text text-anchor="start" x="624" y="-178.7" font-family="Helvetica,sans-Serif" font-size="11.00">interactive dashboard</text>
</g>
<!-- agent&#45;&gt;view -->
<g id="edge3" class="edge">
<title>agent&#45;&gt;view</title>
<path fill="none" stroke="#607d8b" d="M433.33,-152.76C481.59,-159.56 546.27,-168.67 597.77,-175.93"/>
<polygon fill="#607d8b" stroke="#607d8b" points="597.5,-179.42 607.89,-177.35 598.47,-172.49 597.5,-179.42"/>
<text text-anchor="middle" x="510" y="-172.4" font-family="Helvetica,sans-Serif" font-size="12.00">watch live</text>
</g>
<!-- record -->
<g id="node5" class="node">
<title>record</title>
<path fill="#e3f2fd" stroke="#1976d2" stroke-width="1.4" d="M745,-133.5C745,-133.5 624,-133.5 624,-133.5 618,-133.5 612,-127.5 612,-121.5 612,-121.5 612,-100.5 612,-100.5 612,-94.5 618,-88.5 624,-88.5 624,-88.5 745,-88.5 745,-88.5 751,-88.5 757,-94.5 757,-100.5 757,-100.5 757,-121.5 757,-121.5 757,-127.5 751,-133.5 745,-133.5"/>
<text text-anchor="start" x="628" y="-113.3" font-family="Helvetica,sans-Serif" font-weight="bold" font-size="14.00">rezolus record</text>
<text text-anchor="start" x="638" y="-101.7" font-family="Helvetica,sans-Serif" font-size="11.00">save a recording</text>
</g>
<!-- agent&#45;&gt;record -->
<g id="edge4" class="edge">
<title>agent&#45;&gt;record</title>
<path fill="none" stroke="#607d8b" d="M433.13,-131.53C442.15,-130.23 451.29,-129.01 460,-128 506.88,-122.56 559.5,-118.46 601.9,-115.65"/>
<polygon fill="#607d8b" stroke="#607d8b" points="602.15,-119.14 611.9,-115 601.69,-112.16 602.15,-119.14"/>
<text text-anchor="middle" x="510" y="-131.4" font-family="Helvetica,sans-Serif" font-size="12.00">save</text>
</g>
<!-- hindsight -->
<g id="node6" class="node">
<title>hindsight</title>
<path fill="#e3f2fd" stroke="#1976d2" stroke-width="1.4" d="M756,-56C756,-56 613,-56 613,-56 607,-56 601,-50 601,-44 601,-44 601,-12 601,-12 601,-6 607,0 613,0 613,0 756,0 756,0 762,0 768,-6 768,-12 768,-12 768,-44 768,-44 768,-50 762,-56 756,-56"/>
<text text-anchor="start" x="617" y="-35.8" font-family="Helvetica,sans-Serif" font-weight="bold" font-size="14.00">rezolus hindsight</text>
<text text-anchor="start" x="642" y="-24.2" font-family="Helvetica,sans-Serif" font-size="11.00">go back in time</text>
<text text-anchor="start" x="639" y="-13.2" font-family="Helvetica,sans-Serif" font-size="11.00">after an incident</text>
</g>
<!-- agent&#45;&gt;hindsight -->
<g id="edge5" class="edge">
<title>agent&#45;&gt;hindsight</title>
<path fill="none" stroke="#607d8b" d="M407.85,-120.31C424.01,-112.4 442.62,-103.8 460,-97 502.36,-80.42 550.44,-65.13 591.13,-53.19"/>
<polygon fill="#607d8b" stroke="#607d8b" points="592.14,-56.54 600.77,-50.38 590.19,-49.82 592.14,-56.54"/>
<text text-anchor="middle" x="510" y="-100.4" font-family="Helvetica,sans-Serif" font-size="12.00">always&#45;on buffer</text>
</g>
<!-- grafana -->
<g id="node10" class="node">
<title>grafana</title>
<path fill="#eceff1" stroke="#90a4ae" stroke-width="1.4" d="M1127,-283C1127,-283 946,-283 946,-283 940,-283 934,-277 934,-271 934,-271 934,-259 934,-259 934,-253 940,-247 946,-247 946,-247 1127,-247 1127,-247 1133,-247 1139,-253 1139,-259 1139,-259 1139,-271 1139,-271 1139,-277 1133,-283 1127,-283"/>
<text text-anchor="start" x="950" y="-262.3" font-family="Helvetica,sans-Serif" font-weight="bold" font-size="14.00">Prometheus / Grafana</text>
</g>
<!-- exporter&#45;&gt;grafana -->
<g id="edge6" class="edge">
<title>exporter&#45;&gt;grafana</title>
<path fill="none" stroke="#607d8b" d="M782.07,-265C825.9,-265 878,-265 923.54,-265"/>
<polygon fill="#607d8b" stroke="#607d8b" points="923.75,-268.5 933.75,-265 923.75,-261.5 923.75,-268.5"/>
<text text-anchor="middle" x="858" y="-268.4" font-family="Helvetica,sans-Serif" font-size="12.00">scrape</text>
</g>
<!-- browser -->
<g id="node11" class="node">
<title>browser</title>
<path fill="#eceff1" stroke="#90a4ae" stroke-width="1.4" d="M1092.5,-206C1092.5,-206 980.5,-206 980.5,-206 974.5,-206 968.5,-200 968.5,-194 968.5,-194 968.5,-182 968.5,-182 968.5,-176 974.5,-170 980.5,-170 980.5,-170 1092.5,-170 1092.5,-170 1098.5,-170 1104.5,-176 1104.5,-182 1104.5,-182 1104.5,-194 1104.5,-194 1104.5,-200 1098.5,-206 1092.5,-206"/>
<text text-anchor="start" x="984.5" y="-185.3" font-family="Helvetica,sans-Serif" font-weight="bold" font-size="14.00">Your browser</text>
</g>
<!-- view&#45;&gt;browser -->
<g id="edge12" class="edge">
<title>view&#45;&gt;browser</title>
<path fill="none" stroke="#607d8b" d="M771.35,-188C828.52,-188 903.01,-188 958.3,-188"/>
<polygon fill="#607d8b" stroke="#607d8b" points="771.01,-184.5 761.01,-188 771.01,-191.5 771.01,-184.5"/>
<polygon fill="#607d8b" stroke="#607d8b" points="958.4,-191.5 968.4,-188 958.4,-184.5 958.4,-191.5"/>
</g>
<!-- recording -->
<g id="node9" class="node">
<title>recording</title>
<path fill="#ffe0b2" stroke="#f57c00" stroke-width="1.4" d="M1092,-85.26C1092,-88.36 1067.12,-90.88 1036.5,-90.88 1005.88,-90.88 981,-88.36 981,-85.26 981,-85.26 981,-34.74 981,-34.74 981,-31.64 1005.88,-29.12 1036.5,-29.12 1067.12,-29.12 1092,-31.64 1092,-34.74 1092,-34.74 1092,-85.26 1092,-85.26"/>
<path fill="none" stroke="#f57c00" stroke-width="1.4" d="M1092,-85.26C1092,-82.16 1067.12,-79.65 1036.5,-79.65 1005.88,-79.65 981,-82.16 981,-85.26"/>
<text text-anchor="start" x="997" y="-62.3" font-family="Helvetica,sans-Serif" font-weight="bold" font-size="14.00">Recording</text>
<text text-anchor="start" x="1003" y="-50.7" font-family="Helvetica,sans-Serif" font-size="11.00">.parquet file</text>
</g>
<!-- record&#45;&gt;recording -->
<g id="edge7" class="edge">
<title>record&#45;&gt;recording</title>
<path fill="none" stroke="#607d8b" d="M757.17,-100.56C819.84,-91.42 910.06,-78.28 970.63,-69.45"/>
<polygon fill="#607d8b" stroke="#607d8b" points="971.44,-72.87 980.83,-67.97 970.43,-65.94 971.44,-72.87"/>
</g>
<!-- hindsight&#45;&gt;recording -->
<g id="edge8" class="edge">
<title>hindsight&#45;&gt;recording</title>
<path fill="none" stroke="#607d8b" d="M768.08,-35.4C809.74,-39.14 861.05,-43.78 907,-48 927.71,-49.9 950.29,-52 970.67,-53.91"/>
<polygon fill="#607d8b" stroke="#607d8b" points="970.51,-57.41 980.79,-54.85 971.16,-50.44 970.51,-57.41"/>
<text text-anchor="middle" x="858" y="-51.4" font-family="Helvetica,sans-Serif" font-size="12.00">dump on trigger</text>
</g>
<!-- mcp -->
<g id="node7" class="node">
<title>mcp</title>
<path fill="#e3f2fd" stroke="#1976d2" stroke-width="1.4" d="M1392.5,-134.5C1392.5,-134.5 1284.5,-134.5 1284.5,-134.5 1278.5,-134.5 1272.5,-128.5 1272.5,-122.5 1272.5,-122.5 1272.5,-101.5 1272.5,-101.5 1272.5,-95.5 1278.5,-89.5 1284.5,-89.5 1284.5,-89.5 1392.5,-89.5 1392.5,-89.5 1398.5,-89.5 1404.5,-95.5 1404.5,-101.5 1404.5,-101.5 1404.5,-122.5 1404.5,-122.5 1404.5,-128.5 1398.5,-134.5 1392.5,-134.5"/>
<text text-anchor="start" x="1291.5" y="-114.3" font-family="Helvetica,sans-Serif" font-weight="bold" font-size="14.00">rezolus mcp</text>
<text text-anchor="start" x="1288.5" y="-102.7" font-family="Helvetica,sans-Serif" font-size="11.00">AI&#45;guided analysis</text>
</g>
<!-- llm -->
<g id="node12" class="node">
<title>llm</title>
<path fill="#eceff1" stroke="#90a4ae" stroke-width="1.4" d="M1602,-130C1602,-130 1501,-130 1501,-130 1495,-130 1489,-124 1489,-118 1489,-118 1489,-106 1489,-106 1489,-100 1495,-94 1501,-94 1501,-94 1602,-94 1602,-94 1608,-94 1614,-100 1614,-106 1614,-106 1614,-118 1614,-118 1614,-124 1608,-130 1602,-130"/>
<text text-anchor="start" x="1505" y="-109.3" font-family="Helvetica,sans-Serif" font-weight="bold" font-size="14.00">AI assistant</text>
</g>
<!-- mcp&#45;&gt;llm -->
<g id="edge13" class="edge">
<title>mcp&#45;&gt;llm</title>
<path fill="none" stroke="#607d8b" d="M1414.79,-112C1435.58,-112 1458.08,-112 1478.68,-112"/>
<polygon fill="#607d8b" stroke="#607d8b" points="1414.53,-108.5 1404.53,-112 1414.53,-115.5 1414.53,-108.5"/>
<polygon fill="#607d8b" stroke="#607d8b" points="1478.93,-115.5 1488.93,-112 1478.93,-108.5 1478.93,-115.5"/>
</g>
<!-- pqtools -->
<g id="node8" class="node">
<title>pqtools</title>
<path fill="#e3f2fd" stroke="#1976d2" stroke-width="1.4" d="M1422,-57.5C1422,-57.5 1255,-57.5 1255,-57.5 1249,-57.5 1243,-51.5 1243,-45.5 1243,-45.5 1243,-24.5 1243,-24.5 1243,-18.5 1249,-12.5 1255,-12.5 1255,-12.5 1422,-12.5 1422,-12.5 1428,-12.5 1434,-18.5 1434,-24.5 1434,-24.5 1434,-45.5 1434,-45.5 1434,-51.5 1428,-57.5 1422,-57.5"/>
<text text-anchor="start" x="1276.5" y="-37.3" font-family="Helvetica,sans-Serif" font-weight="bold" font-size="14.00">rezolus parquet</text>
<text text-anchor="start" x="1259" y="-25.7" font-family="Helvetica,sans-Serif" font-size="11.00">inspect · annotate · combine</text>
</g>
<!-- recording&#45;&gt;view -->
<g id="edge9" class="edge">
<title>recording&#45;&gt;view</title>
<path fill="none" stroke="#8d6e63" d="M980.94,-81.68C958.15,-90.62 931.36,-100.98 907,-110 858.66,-127.91 804.04,-147.15 761.13,-162.05"/>
<polygon fill="#8d6e63" stroke="#8d6e63" points="759.91,-158.77 751.61,-165.35 762.2,-165.38 759.91,-158.77"/>
<text text-anchor="middle" x="858" y="-147.4" font-family="Helvetica,sans-Serif" font-size="12.00">explore</text>
</g>
<!-- recording&#45;&gt;mcp -->
<g id="edge10" class="edge">
<title>recording&#45;&gt;mcp</title>
<path fill="none" stroke="#8d6e63" d="M1092.18,-69.48C1139.89,-77.75 1209.57,-89.82 1262.48,-99"/>
<polygon fill="#8d6e63" stroke="#8d6e63" points="1262.05,-102.47 1272.5,-100.73 1263.24,-95.58 1262.05,-102.47"/>
<text text-anchor="middle" x="1191" y="-93.4" font-family="Helvetica,sans-Serif" font-size="12.00">analyze</text>
</g>
<!-- recording&#45;&gt;pqtools -->
<g id="edge11" class="edge">
<title>recording&#45;&gt;pqtools</title>
<path fill="none" stroke="#8d6e63" d="M1092.14,-52.91C1114.94,-50.14 1141.72,-47.12 1166,-45 1187.51,-43.12 1210.58,-41.5 1232.6,-40.15"/>
<polygon fill="#8d6e63" stroke="#8d6e63" points="1232.86,-43.64 1242.63,-39.55 1232.44,-36.65 1232.86,-43.64"/>
<text text-anchor="middle" x="1191" y="-48.4" font-family="Helvetica,sans-Serif" font-size="12.00">manage</text>
</g>
</g>
</svg>
