<?xml version="1.0" encoding="UTF-8" standalone="no"?>
<!DOCTYPE svg PUBLIC "-//W3C//DTD SVG 1.1//EN"
 "http://www.w3.org/Graphics/SVG/1.1/DTD/svg11.dtd">
<!-- Generated by graphviz version 2.43.0 (0)
 -->
<!-- Title: rezolus Pages: 1 -->
<svg width="795pt" height="583pt"
 viewBox="0.00 0.00 795.00 582.88" xmlns="http://www.w3.org/2000/svg" xmlns:xlink="http://www.w3.org/1999/xlink">
<g id="graph0" class="graph" transform="scale(1 1) rotate(0) translate(4 578.88)">
<title>rezolus</title>
<polygon fill="white" stroke="transparent" points="-4,4 -4,-578.88 791,-578.88 791,4 -4,4"/>
<text text-anchor="middle" x="393.5" y="-553.27" font-family="Helvetica,sans-Serif" font-size="22.00">What you can do with Rezolus</text>
<!-- system -->
<g id="node1" class="node">
<title>system</title>
<path fill="#e8f5e0" stroke="#7cb342" stroke-width="1.4" d="M472,-542.88C472,-542.88 297,-542.88 297,-542.88 291,-542.88 285,-536.88 285,-530.88 285,-530.88 285,-487.88 285,-487.88 285,-481.88 291,-475.88 297,-475.88 297,-475.88 472,-475.88 472,-475.88 478,-475.88 484,-481.88 484,-487.88 484,-487.88 484,-530.88 484,-530.88 484,-536.88 478,-542.88 472,-542.88"/>
<text text-anchor="start" x="332" y="-522.67" font-family="Helvetica,sans-Serif" font-weight="bold" font-size="14.00">Your systems</text>
<text text-anchor="start" x="301" y="-511.07" font-family="Helvetica,sans-Serif" font-size="11.00">CPU · GPU · kernel · scheduler</text>
<text text-anchor="start" x="305" y="-500.07" font-family="Helvetica,sans-Serif" font-size="11.00">syscalls · block I/O · network</text>
<text text-anchor="start" x="327" y="-489.07" font-family="Helvetica,sans-Serif" font-size="11.00">containers · services</text>
</g>
<!-- agent -->
<g id="node2" class="node">
<title>agent</title>
<path fill="#bbdefb" stroke="#1976d2" stroke-width="1.8" d="M442.5,-408.88C442.5,-408.88 326.5,-408.88 326.5,-408.88 320.5,-408.88 314.5,-402.88 314.5,-396.88 314.5,-396.88 314.5,-375.88 314.5,-375.88 314.5,-369.88 320.5,-363.88 326.5,-363.88 326.5,-363.88 442.5,-363.88 442.5,-363.88 448.5,-363.88 454.5,-369.88 454.5,-375.88 454.5,-375.88 454.5,-396.88 454.5,-396.88 454.5,-402.88 448.5,-408.88 442.5,-408.88"/>
<text text-anchor="start" x="330.5" y="-388.68" font-family="Helvetica,sans-Serif" font-weight="bold" font-size="14.00">rezolus agent</text>
<text text-anchor="start" x="330.5" y="-377.07" font-family="Helvetica,sans-Serif" font-size="11.00">always&#45;on collector</text>
</g>
<!-- system&#45;&gt;agent -->
<g id="edge3" class="edge">
<title>system&#45;&gt;agent</title>
<path fill="none" stroke="#607d8b" d="M384.5,-475.63C384.5,-458.13 384.5,-436.67 384.5,-419.29"/>
<polygon fill="#607d8b" stroke="#607d8b" points="388,-419.07 384.5,-409.07 381,-419.07 388,-419.07"/>
<text text-anchor="middle" x="404.5" y="-439.27" font-family="Helvetica,sans-Serif" font-size="12.00">collect</text>
</g>
<!-- exporter -->
<g id="node3" class="node">
<title>exporter</title>
<path fill="#e3f2fd" stroke="#1976d2" stroke-width="1.4" d="M188,-291.38C188,-291.38 17,-291.38 17,-291.38 11,-291.38 5,-285.38 5,-279.38 5,-279.38 5,-258.38 5,-258.38 5,-252.38 11,-246.38 17,-246.38 17,-246.38 188,-246.38 188,-246.38 194,-246.38 200,-252.38 200,-258.38 200,-258.38 200,-279.38 200,-279.38 200,-285.38 194,-291.38 188,-291.38"/>
<text text-anchor="start" x="37.5" y="-271.18" font-family="Helvetica,sans-Serif" font-weight="bold" font-size="14.00">rezolus exporter</text>
<text text-anchor="start" x="21" y="-259.57" font-family="Helvetica,sans-Serif" font-size="11.00">Prometheus metrics endpoint</text>
</g>
<!-- agent&#45;&gt;exporter -->
<g id="edge4" class="edge">
<title>agent&#45;&gt;exporter</title>
<path fill="none" stroke="#607d8b" d="M331.79,-363.79C284.46,-344.4 214.93,-315.92 164.86,-295.42"/>
<polygon fill="#607d8b" stroke="#607d8b" points="166.01,-292.11 155.43,-291.55 163.36,-298.58 166.01,-292.11"/>
<text text-anchor="middle" x="282" y="-327.27" font-family="Helvetica,sans-Serif" font-size="12.00">expose</text>
</g>
<!-- view -->
<g id="node4" class="node">
<title>view</title>
<path fill="#e3f2fd" stroke="#1976d2" stroke-width="1.4" d="M377,-291.38C377,-291.38 248,-291.38 248,-291.38 242,-291.38 236,-285.38 236,-279.38 236,-279.38 236,-258.38 236,-258.38 236,-252.38 242,-246.38 248,-246.38 248,-246.38 377,-246.38 377,-246.38 383,-246.38 389,-252.38 389,-258.38 389,-258.38 389,-279.38 389,-279.38 389,-285.38 383,-291.38 377,-291.38"/>
<text text-anchor="start" x="263.5" y="-271.18" font-family="Helvetica,sans-Serif" font-weight="bold" font-size="14.00">rezolus view</text>
<text text-anchor="start" x="252" y="-259.57" font-family="Helvetica,sans-Serif" font-size="11.00">interactive dashboard</text>
</g>
<!-- agent&#45;&gt;view -->
<g id="edge5" class="edge">
<title>agent&#45;&gt;view</title>
<path fill="none" stroke="#607d8b" d="M370.96,-363.65C359.79,-345.74 343.84,-320.14 331.41,-300.21"/>
<polygon fill="#607d8b" stroke="#607d8b" points="334.24,-298.14 325.98,-291.5 328.3,-301.84 334.24,-298.14"/>
<text text-anchor="middle" x="384" y="-327.27" font-family="Helvetica,sans-Serif" font-size="12.00">watch live</text>
</g>
<!-- record -->
<g id="node5" class="node">
<title>record</title>
<path fill="#e3f2fd" stroke="#1976d2" stroke-width="1.4" d="M558,-291.38C558,-291.38 437,-291.38 437,-291.38 431,-291.38 425,-285.38 425,-279.38 425,-279.38 425,-258.38 425,-258.38 425,-252.38 431,-246.38 437,-246.38 437,-246.38 558,-246.38 558,-246.38 564,-246.38 570,-252.38 570,-258.38 570,-258.38 570,-279.38 570,-279.38 570,-285.38 564,-291.38 558,-291.38"/>
<text text-anchor="start" x="441" y="-271.18" font-family="Helvetica,sans-Serif" font-weight="bold" font-size="14.00">rezolus record</text>
<text text-anchor="start" x="451" y="-259.57" font-family="Helvetica,sans-Serif" font-size="11.00">save a recording</text>
</g>
<!-- agent&#45;&gt;record -->
<g id="edge6" class="edge">
<title>agent&#45;&gt;record</title>
<path fill="none" stroke="#607d8b" d="M405.75,-363.65C423.67,-345.34 449.45,-318.98 469.13,-298.87"/>
<polygon fill="#607d8b" stroke="#607d8b" points="471.85,-301.1 476.34,-291.5 466.85,-296.2 471.85,-301.1"/>
<text text-anchor="middle" x="458.5" y="-327.27" font-family="Helvetica,sans-Serif" font-size="12.00">save</text>
</g>
<!-- hindsight -->
<g id="node6" class="node">
<title>hindsight</title>
<path fill="#e3f2fd" stroke="#1976d2" stroke-width="1.4" d="M761,-296.88C761,-296.88 618,-296.88 618,-296.88 612,-296.88 606,-290.88 606,-284.88 606,-284.88 606,-252.88 606,-252.88 606,-246.88 612,-240.88 618,-240.88 618,-240.88 761,-240.88 761,-240.88 767,-240.88 773,-246.88 773,-252.88 773,-252.88 773,-284.88 773,-284.88 773,-290.88 767,-296.88 761,-296.88"/>
<text text-anchor="start" x="622" y="-276.68" font-family="Helvetica,sans-Serif" font-weight="bold" font-size="14.00">rezolus hindsight</text>
<text text-anchor="start" x="647" y="-265.07" font-family="Helvetica,sans-Serif" font-size="11.00">go back in time</text>
<text text-anchor="start" x="644" y="-254.07" font-family="Helvetica,sans-Serif" font-size="11.00">after an incident</text>
</g>
<!-- agent&#45;&gt;hindsight -->
<g id="edge7" class="edge">
<title>agent&#45;&gt;hindsight</title>
<path fill="none" stroke="#607d8b" d="M441.51,-363.79C488.5,-345.99 555.73,-320.53 608.34,-300.61"/>
<polygon fill="#607d8b" stroke="#607d8b" points="609.87,-303.77 617.98,-296.96 607.39,-297.23 609.87,-303.77"/>
<text text-anchor="middle" x="596.5" y="-327.27" font-family="Helvetica,sans-Serif" font-size="12.00">always&#45;on buffer</text>
</g>
<!-- grafana -->
<g id="node10" class="node">
<title>grafana</title>
<path fill="#eceff1" stroke="#90a4ae" stroke-width="1.4" d="M193,-160.94C193,-160.94 12,-160.94 12,-160.94 6,-160.94 0,-154.94 0,-148.94 0,-148.94 0,-136.94 0,-136.94 0,-130.94 6,-124.94 12,-124.94 12,-124.94 193,-124.94 193,-124.94 199,-124.94 205,-130.94 205,-136.94 205,-136.94 205,-148.94 205,-148.94 205,-154.94 199,-160.94 193,-160.94"/>
<text text-anchor="start" x="16" y="-140.24" font-family="Helvetica,sans-Serif" font-weight="bold" font-size="14.00">Prometheus / Grafana</text>
</g>
<!-- exporter&#45;&gt;grafana -->
<g id="edge8" class="edge">
<title>exporter&#45;&gt;grafana</title>
<path fill="none" stroke="#607d8b" d="M102.5,-246.29C102.5,-225.55 102.5,-194.12 102.5,-171.56"/>
<polygon fill="#607d8b" stroke="#607d8b" points="106,-171.28 102.5,-161.28 99,-171.28 106,-171.28"/>
<text text-anchor="middle" x="123" y="-204.28" font-family="Helvetica,sans-Serif" font-size="12.00">scrape</text>
</g>
<!-- browser -->
<g id="node11" class="node">
<title>browser</title>
<path fill="#eceff1" stroke="#90a4ae" stroke-width="1.4" d="M368.5,-160.94C368.5,-160.94 256.5,-160.94 256.5,-160.94 250.5,-160.94 244.5,-154.94 244.5,-148.94 244.5,-148.94 244.5,-136.94 244.5,-136.94 244.5,-130.94 250.5,-124.94 256.5,-124.94 256.5,-124.94 368.5,-124.94 368.5,-124.94 374.5,-124.94 380.5,-130.94 380.5,-136.94 380.5,-136.94 380.5,-148.94 380.5,-148.94 380.5,-154.94 374.5,-160.94 368.5,-160.94"/>
<text text-anchor="start" x="260.5" y="-140.24" font-family="Helvetica,sans-Serif" font-weight="bold" font-size="14.00">Your browser</text>
</g>
<!-- view&#45;&gt;browser -->
<g id="edge14" class="edge">
<title>view&#45;&gt;browser</title>
<path fill="none" stroke="#607d8b" d="M312.5,-235.98C312.5,-216 312.5,-190.51 312.5,-171.42"/>
<polygon fill="#607d8b" stroke="#607d8b" points="309,-236.29 312.5,-246.29 316,-236.29 309,-236.29"/>
<polygon fill="#607d8b" stroke="#607d8b" points="316,-171.28 312.5,-161.28 309,-171.28 316,-171.28"/>
</g>
<!-- recording -->
<g id="node9" class="node">
<title>recording</title>
<path fill="#ffe0b2" stroke="#f57c00" stroke-width="1.4" d="M649,-168.2C649,-171.3 624.12,-173.81 593.5,-173.81 562.88,-173.81 538,-171.3 538,-168.2 538,-168.2 538,-117.68 538,-117.68 538,-114.58 562.88,-112.06 593.5,-112.06 624.12,-112.06 649,-114.58 649,-117.68 649,-117.68 649,-168.2 649,-168.2"/>
<path fill="none" stroke="#f57c00" stroke-width="1.4" d="M649,-168.2C649,-165.1 624.12,-162.59 593.5,-162.59 562.88,-162.59 538,-165.1 538,-168.2"/>
<text text-anchor="start" x="554" y="-145.24" font-family="Helvetica,sans-Serif" font-weight="bold" font-size="14.00">Recording</text>
<text text-anchor="start" x="560" y="-133.64" font-family="Helvetica,sans-Serif" font-size="11.00">.parquet file</text>
</g>
<!-- record&#45;&gt;recording -->
<g id="edge9" class="edge">
<title>record&#45;&gt;recording</title>
<path fill="none" stroke="#607d8b" d="M514.22,-246.29C527.88,-228.65 547.52,-203.29 563.84,-182.23"/>
<polygon fill="#607d8b" stroke="#607d8b" points="566.78,-184.15 570.14,-174.1 561.25,-179.86 566.78,-184.15"/>
</g>
<!-- hindsight&#45;&gt;recording -->
<g id="edge10" class="edge">
<title>hindsight&#45;&gt;recording</title>
<path fill="none" stroke="#607d8b" d="M668.43,-240.68C655.16,-223.54 637.83,-201.17 623.18,-182.26"/>
<polygon fill="#607d8b" stroke="#607d8b" points="625.77,-179.88 616.87,-174.11 620.23,-184.16 625.77,-179.88"/>
<text text-anchor="middle" x="695.5" y="-204.28" font-family="Helvetica,sans-Serif" font-size="12.00">dump on trigger</text>
</g>
<!-- mcp -->
<g id="node7" class="node">
<title>mcp</title>
<path fill="#e3f2fd" stroke="#1976d2" stroke-width="1.4" d="M512.5,-45C512.5,-45 404.5,-45 404.5,-45 398.5,-45 392.5,-39 392.5,-33 392.5,-33 392.5,-12 392.5,-12 392.5,-6 398.5,0 404.5,0 404.5,0 512.5,0 512.5,0 518.5,0 524.5,-6 524.5,-12 524.5,-12 524.5,-33 524.5,-33 524.5,-39 518.5,-45 512.5,-45"/>
<text text-anchor="start" x="411.5" y="-24.8" font-family="Helvetica,sans-Serif" font-weight="bold" font-size="14.00">rezolus mcp</text>
<text text-anchor="start" x="408.5" y="-13.2" font-family="Helvetica,sans-Serif" font-size="11.00">AI&#45;guided analysis</text>
</g>
<!-- pqtools -->
<g id="node8" class="node">
<title>pqtools</title>
<path fill="#e3f2fd" stroke="#1976d2" stroke-width="1.4" d="M775,-45C775,-45 608,-45 608,-45 602,-45 596,-39 596,-33 596,-33 596,-12 596,-12 596,-6 602,0 608,0 608,0 775,0 775,0 781,0 787,-6 787,-12 787,-12 787,-33 787,-33 787,-39 781,-45 775,-45"/>
<text text-anchor="start" x="629.5" y="-24.8" font-family="Helvetica,sans-Serif" font-weight="bold" font-size="14.00">rezolus parquet</text>
<text text-anchor="start" x="612" y="-13.2" font-family="Helvetica,sans-Serif" font-size="11.00">inspect · annotate · combine</text>
</g>
<!-- mcp&#45;&gt;pqtools -->
<!-- llm -->
<g id="node12" class="node">
<title>llm</title>
<path fill="#eceff1" stroke="#90a4ae" stroke-width="1.4" d="M309,-40.5C309,-40.5 208,-40.5 208,-40.5 202,-40.5 196,-34.5 196,-28.5 196,-28.5 196,-16.5 196,-16.5 196,-10.5 202,-4.5 208,-4.5 208,-4.5 309,-4.5 309,-4.5 315,-4.5 321,-10.5 321,-16.5 321,-16.5 321,-28.5 321,-28.5 321,-34.5 315,-40.5 309,-40.5"/>
<text text-anchor="start" x="212" y="-19.8" font-family="Helvetica,sans-Serif" font-weight="bold" font-size="14.00">AI assistant</text>
</g>
<!-- mcp&#45;&gt;llm -->
<g id="edge15" class="edge">
<title>mcp&#45;&gt;llm</title>
<path fill="none" stroke="#607d8b" d="M381.99,-22.5C365.41,-22.5 347.91,-22.5 331.46,-22.5"/>
<polygon fill="#607d8b" stroke="#607d8b" points="382.19,-26 392.19,-22.5 382.19,-19 382.19,-26"/>
<polygon fill="#607d8b" stroke="#607d8b" points="331.23,-19 321.23,-22.5 331.23,-26 331.23,-19"/>
<text text-anchor="middle" x="356.75" y="-28.9" font-family="Helvetica,sans-Serif" font-size="12.00">ask</text>
</g>
<!-- recording&#45;&gt;view -->
<g id="edge11" class="edge">
<title>recording&#45;&gt;view</title>
<path fill="none" stroke="#8d6e63" d="M537.89,-168.47C489.54,-189.79 419.75,-220.57 370.67,-242.22"/>
<polygon fill="#8d6e63" stroke="#8d6e63" points="369.18,-239.05 361.45,-246.29 372.01,-245.45 369.18,-239.05"/>
<text text-anchor="middle" x="484" y="-204.28" font-family="Helvetica,sans-Serif" font-size="12.00">explore</text>
</g>
<!-- recording&#45;&gt;mcp -->
<g id="edge12" class="edge">
<title>recording&#45;&gt;mcp</title>
<path fill="none" stroke="#8d6e63" d="M559.78,-112.36C538.73,-93.89 511.77,-70.24 490.96,-51.98"/>
<polygon fill="#8d6e63" stroke="#8d6e63" points="493.14,-49.23 483.31,-45.27 488.52,-54.49 493.14,-49.23"/>
<text text-anchor="middle" x="549.5" y="-75.4" font-family="Helvetica,sans-Serif" font-size="12.00">analyze</text>
</g>
<!-- recording&#45;&gt;pqtools -->
<g id="edge13" class="edge">
<title>recording&#45;&gt;pqtools</title>
<path fill="none" stroke="#8d6e63" d="M618.23,-112.05C633.18,-93.99 652.16,-71.05 667.05,-53.04"/>
<polygon fill="#8d6e63" stroke="#8d6e63" points="669.9,-55.09 673.58,-45.15 664.51,-50.63 669.9,-55.09"/>
<text text-anchor="middle" x="675.5" y="-75.4" font-family="Helvetica,sans-Serif" font-size="12.00">manage</text>
</g>
<!-- llm&#45;&gt;mcp -->
</g>
</svg>
