<?xml version="1.0" encoding="UTF-8" standalone="no"?>
<!DOCTYPE svg PUBLIC "-//W3C//DTD SVG 1.1//EN"
 "http://www.w3.org/Graphics/SVG/1.1/DTD/svg11.dtd">
<!-- Generated by graphviz version 2.43.0 (0)
 -->
<!-- Title: rezolus Pages: 1 -->
<svg width="889pt" height="551pt"
 viewBox="0.00 0.00 889.00 550.88" xmlns="http://www.w3.org/2000/svg" xmlns:xlink="http://www.w3.org/1999/xlink">
<g id="graph0" class="graph" transform="scale(1 1) rotate(0) translate(4 546.88)">
<title>rezolus</title>
<polygon fill="white" stroke="transparent" points="-4,4 -4,-546.88 885,-546.88 885,4 -4,4"/>
<!-- system -->
<g id="node1" class="node">
<title>system</title>
<path fill="#e8f5e0" stroke="#7cb342" stroke-width="1.4" d="M506,-542.88C506,-542.88 331,-542.88 331,-542.88 325,-542.88 319,-536.88 319,-530.88 319,-530.88 319,-487.88 319,-487.88 319,-481.88 325,-475.88 331,-475.88 331,-475.88 506,-475.88 506,-475.88 512,-475.88 518,-481.88 518,-487.88 518,-487.88 518,-530.88 518,-530.88 518,-536.88 512,-542.88 506,-542.88"/>
<text text-anchor="start" x="366" y="-522.67" font-family="Helvetica,sans-Serif" font-weight="bold" font-size="14.00">Your systems</text>
<text text-anchor="start" x="335" y="-511.07" font-family="Helvetica,sans-Serif" font-size="11.00">CPU · GPU · kernel · scheduler</text>
<text text-anchor="start" x="339" y="-500.07" font-family="Helvetica,sans-Serif" font-size="11.00">syscalls · block I/O · network</text>
<text text-anchor="start" x="361" y="-489.07" font-family="Helvetica,sans-Serif" font-size="11.00">containers · services</text>
</g>
<!-- agent -->
<g id="node2" class="node">
<title>agent</title>
<path fill="#bbdefb" stroke="#1976d2" stroke-width="1.8" d="M476.5,-408.88C476.5,-408.88 360.5,-408.88 360.5,-408.88 354.5,-408.88 348.5,-402.88 348.5,-396.88 348.5,-396.88 348.5,-375.88 348.5,-375.88 348.5,-369.88 354.5,-363.88 360.5,-363.88 360.5,-363.88 476.5,-363.88 476.5,-363.88 482.5,-363.88 488.5,-369.88 488.5,-375.88 488.5,-375.88 488.5,-396.88 488.5,-396.88 488.5,-402.88 482.5,-408.88 476.5,-408.88"/>
<text text-anchor="start" x="364.5" y="-388.68" font-family="Helvetica,sans-Serif" font-weight="bold" font-size="14.00">rezolus agent</text>
<text text-anchor="start" x="364.5" y="-377.07" font-family="Helvetica,sans-Serif" font-size="11.00">always&#45;on collector</text>
</g>
<!-- system&#45;&gt;agent -->
<g id="edge8" class="edge">
<title>system&#45;&gt;agent</title>
<path fill="none" stroke="#607d8b" d="M418.5,-475.63C418.5,-458.13 418.5,-436.67 418.5,-419.29"/>
<polygon fill="#607d8b" stroke="#607d8b" points="422,-419.07 418.5,-409.07 415,-419.07 422,-419.07"/>
<text text-anchor="middle" x="438.5" y="-439.27" font-family="Helvetica,sans-Serif" font-size="12.00">collect</text>
</g>
<!-- exporter -->
<g id="node3" class="node">
<title>exporter</title>
<path fill="#e3f2fd" stroke="#1976d2" stroke-width="1.4" d="M188,-291.38C188,-291.38 17,-291.38 17,-291.38 11,-291.38 5,-285.38 5,-279.38 5,-279.38 5,-258.38 5,-258.38 5,-252.38 11,-246.38 17,-246.38 17,-246.38 188,-246.38 188,-246.38 194,-246.38 200,-252.38 200,-258.38 200,-258.38 200,-279.38 200,-279.38 200,-285.38 194,-291.38 188,-291.38"/>
<text text-anchor="start" x="37.5" y="-271.18" font-family="Helvetica,sans-Serif" font-weight="bold" font-size="14.00">rezolus exporter</text>
<text text-anchor="start" x="21" y="-259.57" font-family="Helvetica,sans-Serif" font-size="11.00">Prometheus metrics endpoint</text>
</g>
<!-- agent&#45;&gt;exporter -->
<g id="edge9" class="edge">
<title>agent&#45;&gt;exporter</title>
<path fill="none" stroke="#607d8b" d="M359.43,-363.79C305.99,-344.25 227.27,-315.48 171.06,-294.94"/>
<polygon fill="#607d8b" stroke="#607d8b" points="172.14,-291.6 161.54,-291.46 169.74,-298.18 172.14,-291.6"/>
<text text-anchor="middle" x="301" y="-327.27" font-family="Helvetica,sans-Serif" font-size="12.00">expose</text>
</g>
<!-- view -->
<g id="node4" class="node">
<title>view</title>
<path fill="#e3f2fd" stroke="#1976d2" stroke-width="1.4" d="M869,-291.38C869,-291.38 740,-291.38 740,-291.38 734,-291.38 728,-285.38 728,-279.38 728,-279.38 728,-258.38 728,-258.38 728,-252.38 734,-246.38 740,-246.38 740,-246.38 869,-246.38 869,-246.38 875,-246.38 881,-252.38 881,-258.38 881,-258.38 881,-279.38 881,-279.38 881,-285.38 875,-291.38 869,-291.38"/>
<text text-anchor="start" x="755.5" y="-271.18" font-family="Helvetica,sans-Serif" font-weight="bold" font-size="14.00">rezolus view</text>
<text text-anchor="start" x="744" y="-259.57" font-family="Helvetica,sans-Serif" font-size="11.00">interactive dashboard</text>
</g>
<!-- agent&#45;&gt;view -->
<g id="edge10" class="edge">
<title>agent&#45;&gt;view</title>
<path fill="none" stroke="#607d8b" d="M488.73,-369.01C524.99,-360.19 569.83,-348.7 609.5,-336.88 651.85,-324.24 698.71,-308.21 735.88,-295"/>
<polygon fill="#607d8b" stroke="#607d8b" points="737.36,-298.19 745.6,-291.53 735,-291.59 737.36,-298.19"/>
<text text-anchor="middle" x="677" y="-327.27" font-family="Helvetica,sans-Serif" font-size="12.00">watch live</text>
</g>
<!-- record -->
<g id="node5" class="node">
<title>record</title>
<path fill="#e3f2fd" stroke="#1976d2" stroke-width="1.4" d="M405,-291.38C405,-291.38 284,-291.38 284,-291.38 278,-291.38 272,-285.38 272,-279.38 272,-279.38 272,-258.38 272,-258.38 272,-252.38 278,-246.38 284,-246.38 284,-246.38 405,-246.38 405,-246.38 411,-246.38 417,-252.38 417,-258.38 417,-258.38 417,-279.38 417,-279.38 417,-285.38 411,-291.38 405,-291.38"/>
<text text-anchor="start" x="288" y="-271.18" font-family="Helvetica,sans-Serif" font-weight="bold" font-size="14.00">rezolus record</text>
<text text-anchor="start" x="298" y="-259.57" font-family="Helvetica,sans-Serif" font-size="11.00">save a recording</text>
</g>
<!-- agent&#45;&gt;record -->
<g id="edge11" class="edge">
<title>agent&#45;&gt;record</title>
<path fill="none" stroke="#607d8b" d="M404.58,-363.65C393.06,-345.66 376.56,-319.91 363.76,-299.94"/>
<polygon fill="#607d8b" stroke="#607d8b" points="366.7,-298.03 358.36,-291.5 360.8,-301.81 366.7,-298.03"/>
<text text-anchor="middle" x="400.5" y="-327.27" font-family="Helvetica,sans-Serif" font-size="12.00">save</text>
</g>
<!-- hindsight -->
<g id="node6" class="node">
<title>hindsight</title>
<path fill="#e3f2fd" stroke="#1976d2" stroke-width="1.4" d="M644,-296.88C644,-296.88 501,-296.88 501,-296.88 495,-296.88 489,-290.88 489,-284.88 489,-284.88 489,-252.88 489,-252.88 489,-246.88 495,-240.88 501,-240.88 501,-240.88 644,-240.88 644,-240.88 650,-240.88 656,-246.88 656,-252.88 656,-252.88 656,-284.88 656,-284.88 656,-290.88 650,-296.88 644,-296.88"/>
<text text-anchor="start" x="505" y="-276.68" font-family="Helvetica,sans-Serif" font-weight="bold" font-size="14.00">rezolus hindsight</text>
<text text-anchor="start" x="530" y="-265.07" font-family="Helvetica,sans-Serif" font-size="11.00">go back in time</text>
<text text-anchor="start" x="527" y="-254.07" font-family="Helvetica,sans-Serif" font-size="11.00">after an incident</text>
</g>
<!-- agent&#45;&gt;hindsight -->
<g id="edge12" class="edge">
<title>agent&#45;&gt;hindsight</title>
<path fill="none" stroke="#607d8b" d="M447.47,-363.65C470.19,-346.61 502.2,-322.6 528.14,-303.14"/>
<polygon fill="#607d8b" stroke="#607d8b" points="530.43,-305.8 536.33,-297 526.23,-300.2 530.43,-305.8"/>
<text text-anchor="middle" x="550.5" y="-327.27" font-family="Helvetica,sans-Serif" font-size="12.00">always&#45;on buffer</text>
</g>
<!-- exporter&#45;&gt;record -->
<!-- grafana -->
<g id="node10" class="node">
<title>grafana</title>
<path fill="#eceff1" stroke="#90a4ae" stroke-width="1.4" d="M193,-160.94C193,-160.94 12,-160.94 12,-160.94 6,-160.94 0,-154.94 0,-148.94 0,-148.94 0,-136.94 0,-136.94 0,-130.94 6,-124.94 12,-124.94 12,-124.94 193,-124.94 193,-124.94 199,-124.94 205,-130.94 205,-136.94 205,-136.94 205,-148.94 205,-148.94 205,-154.94 199,-160.94 193,-160.94"/>
<text text-anchor="start" x="16" y="-140.24" font-family="Helvetica,sans-Serif" font-weight="bold" font-size="14.00">Prometheus / Grafana</text>
</g>
<!-- exporter&#45;&gt;grafana -->
<g id="edge13" class="edge">
<title>exporter&#45;&gt;grafana</title>
<path fill="none" stroke="#607d8b" d="M102.5,-246.29C102.5,-225.55 102.5,-194.12 102.5,-171.56"/>
<polygon fill="#607d8b" stroke="#607d8b" points="106,-171.28 102.5,-161.28 99,-171.28 106,-171.28"/>
<text text-anchor="middle" x="123" y="-204.28" font-family="Helvetica,sans-Serif" font-size="12.00">scrape</text>
</g>
<!-- browser -->
<g id="node11" class="node">
<title>browser</title>
<path fill="#eceff1" stroke="#90a4ae" stroke-width="1.4" d="M860.5,-160.94C860.5,-160.94 748.5,-160.94 748.5,-160.94 742.5,-160.94 736.5,-154.94 736.5,-148.94 736.5,-148.94 736.5,-136.94 736.5,-136.94 736.5,-130.94 742.5,-124.94 748.5,-124.94 748.5,-124.94 860.5,-124.94 860.5,-124.94 866.5,-124.94 872.5,-130.94 872.5,-136.94 872.5,-136.94 872.5,-148.94 872.5,-148.94 872.5,-154.94 866.5,-160.94 860.5,-160.94"/>
<text text-anchor="start" x="752.5" y="-140.24" font-family="Helvetica,sans-Serif" font-weight="bold" font-size="14.00">Your browser</text>
</g>
<!-- view&#45;&gt;browser -->
<g id="edge19" class="edge">
<title>view&#45;&gt;browser</title>
<path fill="none" stroke="#607d8b" d="M804.5,-235.98C804.5,-216 804.5,-190.51 804.5,-171.42"/>
<polygon fill="#607d8b" stroke="#607d8b" points="801,-236.29 804.5,-246.29 808,-236.29 801,-236.29"/>
<polygon fill="#607d8b" stroke="#607d8b" points="808,-171.28 804.5,-161.28 801,-171.28 808,-171.28"/>
</g>
<!-- record&#45;&gt;hindsight -->
<!-- recording -->
<g id="node9" class="node">
<title>recording</title>
<path fill="#ffe0b2" stroke="#f57c00" stroke-width="1.4" d="M628,-168.2C628,-171.3 603.12,-173.81 572.5,-173.81 541.88,-173.81 517,-171.3 517,-168.2 517,-168.2 517,-117.68 517,-117.68 517,-114.58 541.88,-112.06 572.5,-112.06 603.12,-112.06 628,-114.58 628,-117.68 628,-117.68 628,-168.2 628,-168.2"/>
<path fill="none" stroke="#f57c00" stroke-width="1.4" d="M628,-168.2C628,-165.1 603.12,-162.59 572.5,-162.59 541.88,-162.59 517,-165.1 517,-168.2"/>
<text text-anchor="start" x="533" y="-145.24" font-family="Helvetica,sans-Serif" font-weight="bold" font-size="14.00">Recording</text>
<text text-anchor="start" x="539" y="-133.64" font-family="Helvetica,sans-Serif" font-size="11.00">.parquet file</text>
</g>
<!-- record&#45;&gt;recording -->
<g id="edge14" class="edge">
<title>record&#45;&gt;recording</title>
<path fill="none" stroke="#607d8b" d="M365.44,-246.32C380.31,-231.95 401.32,-213.46 422.5,-200.88 448.73,-185.29 479.98,-172.61 507.15,-163.21"/>
<polygon fill="#607d8b" stroke="#607d8b" points="508.6,-166.42 516.96,-159.9 506.36,-159.78 508.6,-166.42"/>
</g>
<!-- hindsight&#45;&gt;view -->
<!-- hindsight&#45;&gt;recording -->
<g id="edge15" class="edge">
<title>hindsight&#45;&gt;recording</title>
<path fill="none" stroke="#607d8b" d="M572.5,-240.68C572.5,-224.16 572.5,-202.77 572.5,-184.31"/>
<polygon fill="#607d8b" stroke="#607d8b" points="576,-184.11 572.5,-174.11 569,-184.11 576,-184.11"/>
<text text-anchor="middle" x="621.5" y="-204.28" font-family="Helvetica,sans-Serif" font-size="12.00">dump on trigger</text>
</g>
<!-- mcp -->
<g id="node7" class="node">
<title>mcp</title>
<path fill="#e3f2fd" stroke="#1976d2" stroke-width="1.4" d="M491.5,-45C491.5,-45 383.5,-45 383.5,-45 377.5,-45 371.5,-39 371.5,-33 371.5,-33 371.5,-12 371.5,-12 371.5,-6 377.5,0 383.5,0 383.5,0 491.5,0 491.5,0 497.5,0 503.5,-6 503.5,-12 503.5,-12 503.5,-33 503.5,-33 503.5,-39 497.5,-45 491.5,-45"/>
<text text-anchor="start" x="390.5" y="-24.8" font-family="Helvetica,sans-Serif" font-weight="bold" font-size="14.00">rezolus mcp</text>
<text text-anchor="start" x="387.5" y="-13.2" font-family="Helvetica,sans-Serif" font-size="11.00">AI&#45;guided analysis</text>
</g>
<!-- pqtools -->
<g id="node8" class="node">
<title>pqtools</title>
<path fill="#e3f2fd" stroke="#1976d2" stroke-width="1.4" d="M754,-45C754,-45 587,-45 587,-45 581,-45 575,-39 575,-33 575,-33 575,-12 575,-12 575,-6 581,0 587,0 587,0 754,0 754,0 760,0 766,-6 766,-12 766,-12 766,-33 766,-33 766,-39 760,-45 754,-45"/>
<text text-anchor="start" x="608.5" y="-24.8" font-family="Helvetica,sans-Serif" font-weight="bold" font-size="14.00">rezolus parquet</text>
<text text-anchor="start" x="591" y="-13.2" font-family="Helvetica,sans-Serif" font-size="11.00">inspect · annotate · combine</text>
</g>
<!-- mcp&#45;&gt;pqtools -->
<!-- llm -->
<g id="node12" class="node">
<title>llm</title>
<path fill="#eceff1" stroke="#90a4ae" stroke-width="1.4" d="M288,-40.5C288,-40.5 187,-40.5 187,-40.5 181,-40.5 175,-34.5 175,-28.5 175,-28.5 175,-16.5 175,-16.5 175,-10.5 181,-4.5 187,-4.5 187,-4.5 288,-4.5 288,-4.5 294,-4.5 300,-10.5 300,-16.5 300,-16.5 300,-28.5 300,-28.5 300,-34.5 294,-40.5 288,-40.5"/>
<text text-anchor="start" x="191" y="-19.8" font-family="Helvetica,sans-Serif" font-weight="bold" font-size="14.00">AI assistant</text>
</g>
<!-- mcp&#45;&gt;llm -->
<g id="edge20" class="edge">
<title>mcp&#45;&gt;llm</title>
<path fill="none" stroke="#607d8b" d="M360.99,-22.5C344.41,-22.5 326.91,-22.5 310.46,-22.5"/>
<polygon fill="#607d8b" stroke="#607d8b" points="361.19,-26 371.19,-22.5 361.19,-19 361.19,-26"/>
<polygon fill="#607d8b" stroke="#607d8b" points="310.23,-19 300.23,-22.5 310.23,-26 310.23,-19"/>
<text text-anchor="middle" x="335.75" y="-28.9" font-family="Helvetica,sans-Serif" font-size="12.00">ask</text>
</g>
<!-- recording&#45;&gt;view -->
<g id="edge16" class="edge">
<title>recording:e&#45;&gt;view:sw</title>
<path fill="none" stroke="#8d6e63" d="M629.5,-142.94C643.26,-142.94 636.32,-162.56 628.5,-173.88 610.72,-199.61 580.87,-174.86 563.5,-200.88 560.29,-205.68 559.81,-209.43 563.5,-213.88 608.52,-268.2 668.82,-199.77 719.74,-238.1"/>
<polygon fill="#8d6e63" stroke="#8d6e63" points="717.66,-240.94 727.5,-244.88 722.27,-235.66 717.66,-240.94"/>
<text text-anchor="middle" x="633.72" y="-229.2" font-family="Helvetica,sans-Serif" font-size="12.00">open recording</text>
</g>
<!-- recording&#45;&gt;mcp -->
<g id="edge17" class="edge">
<title>recording&#45;&gt;mcp</title>
<path fill="none" stroke="#8d6e63" d="M538.78,-112.36C517.73,-93.89 490.77,-70.24 469.96,-51.98"/>
<polygon fill="#8d6e63" stroke="#8d6e63" points="472.14,-49.23 462.31,-45.27 467.52,-54.49 472.14,-49.23"/>
<text text-anchor="middle" x="528.5" y="-75.4" font-family="Helvetica,sans-Serif" font-size="12.00">analyze</text>
</g>
<!-- recording&#45;&gt;pqtools -->
<g id="edge18" class="edge">
<title>recording&#45;&gt;pqtools</title>
<path fill="none" stroke="#8d6e63" d="M597.23,-112.05C612.18,-93.99 631.16,-71.05 646.05,-53.04"/>
<polygon fill="#8d6e63" stroke="#8d6e63" points="648.9,-55.09 652.58,-45.15 643.51,-50.63 648.9,-55.09"/>
<text text-anchor="middle" x="654.5" y="-75.4" font-family="Helvetica,sans-Serif" font-size="12.00">manage</text>
</g>
<!-- recording&#45;&gt;browser -->
<!-- grafana&#45;&gt;recording -->
<!-- llm&#45;&gt;mcp -->
</g>
</svg>
