<?xml version="1.0" encoding="UTF-8" standalone="no"?>
<!DOCTYPE svg PUBLIC "-//W3C//DTD SVG 1.1//EN"
 "http://www.w3.org/Graphics/SVG/1.1/DTD/svg11.dtd">
<!-- Generated by graphviz version 2.43.0 (0)
 -->
<!-- Title: rezolus Pages: 1 -->
<svg width="937pt" height="423pt"
 viewBox="0.00 0.00 937.00 423.00" xmlns="http://www.w3.org/2000/svg" xmlns:xlink="http://www.w3.org/1999/xlink">
<g id="graph0" class="graph" transform="scale(1 1) rotate(0) translate(4 419)">
<title>rezolus</title>
<polygon fill="white" stroke="transparent" points="-4,4 -4,-419 933,-419 933,4 -4,4"/>
<text text-anchor="middle" x="464.5" y="-393.4" font-family="Helvetica,sans-Serif" font-size="22.00">What you can do with Rezolus</text>
<!-- system -->
<g id="node1" class="node">
<title>system</title>
<path fill="#e8f5e0" stroke="#7cb342" stroke-width="1.4" d="M187,-383C187,-383 12,-383 12,-383 6,-383 0,-377 0,-371 0,-371 0,-328 0,-328 0,-322 6,-316 12,-316 12,-316 187,-316 187,-316 193,-316 199,-322 199,-328 199,-328 199,-371 199,-371 199,-377 193,-383 187,-383"/>
<text text-anchor="start" x="47" y="-362.8" font-family="Helvetica,sans-Serif" font-weight="bold" font-size="14.00">Your systems</text>
<text text-anchor="start" x="16" y="-351.2" font-family="Helvetica,sans-Serif" font-size="11.00">CPU · GPU · kernel · scheduler</text>
<text text-anchor="start" x="20" y="-340.2" font-family="Helvetica,sans-Serif" font-size="11.00">syscalls · block I/O · network</text>
<text text-anchor="start" x="42" y="-329.2" font-family="Helvetica,sans-Serif" font-size="11.00">containers · services</text>
</g>
<!-- agent -->
<g id="node2" class="node">
<title>agent</title>
<path fill="#bbdefb" stroke="#1976d2" stroke-width="1.8" d="M157.5,-258C157.5,-258 41.5,-258 41.5,-258 35.5,-258 29.5,-252 29.5,-246 29.5,-246 29.5,-225 29.5,-225 29.5,-219 35.5,-213 41.5,-213 41.5,-213 157.5,-213 157.5,-213 163.5,-213 169.5,-219 169.5,-225 169.5,-225 169.5,-246 169.5,-246 169.5,-252 163.5,-258 157.5,-258"/>
<text text-anchor="start" x="45.5" y="-237.8" font-family="Helvetica,sans-Serif" font-weight="bold" font-size="14.00">rezolus agent</text>
<text text-anchor="start" x="45.5" y="-226.2" font-family="Helvetica,sans-Serif" font-size="11.00">always&#45;on collector</text>
</g>
<!-- system&#45;&gt;agent -->
<g id="edge1" class="edge">
<title>system&#45;&gt;agent</title>
<path fill="none" stroke="#607d8b" d="M99.5,-315.78C99.5,-300.79 99.5,-283.2 99.5,-268.31"/>
<polygon fill="#607d8b" stroke="#607d8b" points="103,-268.02 99.5,-258.02 96,-268.02 103,-268.02"/>
<text text-anchor="middle" x="90" y="-283.9" font-family="Helvetica,sans-Serif" font-size="12.00">collect</text>
</g>
<!-- exporter -->
<g id="node3" class="node">
<title>exporter</title>
<path fill="#e3f2fd" stroke="#1976d2" stroke-width="1.4" d="M548,-376C548,-376 377,-376 377,-376 371,-376 365,-370 365,-364 365,-364 365,-343 365,-343 365,-337 371,-331 377,-331 377,-331 548,-331 548,-331 554,-331 560,-337 560,-343 560,-343 560,-364 560,-364 560,-370 554,-376 548,-376"/>
<text text-anchor="start" x="397.5" y="-355.8" font-family="Helvetica,sans-Serif" font-weight="bold" font-size="14.00">rezolus exporter</text>
<text text-anchor="start" x="381" y="-344.2" font-family="Helvetica,sans-Serif" font-size="11.00">Prometheus metrics endpoint</text>
</g>
<!-- agent&#45;&gt;exporter -->
<g id="edge2" class="edge">
<title>agent&#45;&gt;exporter</title>
<path fill="none" stroke="#607d8b" d="M161.86,-258.05C183.9,-265.99 209,-274.84 232,-282.5 279.45,-298.31 332.81,-314.89 376.13,-328.05"/>
<polygon fill="#607d8b" stroke="#607d8b" points="375.2,-331.42 385.78,-330.97 377.23,-324.72 375.2,-331.42"/>
<text text-anchor="middle" x="282" y="-315.9" font-family="Helvetica,sans-Serif" font-size="12.00">expose</text>
</g>
<!-- view -->
<g id="node4" class="node">
<title>view</title>
<path fill="#e3f2fd" stroke="#1976d2" stroke-width="1.4" d="M527,-302C527,-302 398,-302 398,-302 392,-302 386,-296 386,-290 386,-290 386,-269 386,-269 386,-263 392,-257 398,-257 398,-257 527,-257 527,-257 533,-257 539,-263 539,-269 539,-269 539,-290 539,-290 539,-296 533,-302 527,-302"/>
<text text-anchor="start" x="413.5" y="-281.8" font-family="Helvetica,sans-Serif" font-weight="bold" font-size="14.00">rezolus view</text>
<text text-anchor="start" x="402" y="-270.2" font-family="Helvetica,sans-Serif" font-size="11.00">interactive dashboard</text>
</g>
<!-- agent&#45;&gt;view -->
<g id="edge3" class="edge">
<title>agent&#45;&gt;view</title>
<path fill="none" stroke="#607d8b" d="M169.68,-243.93C228.25,-251.07 312.47,-261.34 375.39,-269.01"/>
<polygon fill="#607d8b" stroke="#607d8b" points="375.35,-272.53 385.7,-270.26 376.19,-265.58 375.35,-272.53"/>
<text text-anchor="middle" x="282" y="-265.9" font-family="Helvetica,sans-Serif" font-size="12.00">watch live</text>
</g>
<!-- record -->
<g id="node5" class="node">
<title>record</title>
<path fill="#e3f2fd" stroke="#1976d2" stroke-width="1.4" d="M523,-228C523,-228 402,-228 402,-228 396,-228 390,-222 390,-216 390,-216 390,-195 390,-195 390,-189 396,-183 402,-183 402,-183 523,-183 523,-183 529,-183 535,-189 535,-195 535,-195 535,-216 535,-216 535,-222 529,-228 523,-228"/>
<text text-anchor="start" x="406" y="-207.8" font-family="Helvetica,sans-Serif" font-weight="bold" font-size="14.00">rezolus record</text>
<text text-anchor="start" x="416" y="-196.2" font-family="Helvetica,sans-Serif" font-size="11.00">save a recording</text>
</g>
<!-- agent&#45;&gt;record -->
<g id="edge4" class="edge">
<title>agent&#45;&gt;record</title>
<path fill="none" stroke="#607d8b" d="M169.76,-229.01C189.83,-227.18 211.78,-225.22 232,-223.5 281.04,-219.34 336.02,-215.02 379.86,-211.65"/>
<polygon fill="#607d8b" stroke="#607d8b" points="380.19,-215.13 389.9,-210.88 379.66,-208.15 380.19,-215.13"/>
<text text-anchor="middle" x="282" y="-226.9" font-family="Helvetica,sans-Serif" font-size="12.00">save</text>
</g>
<!-- hindsight -->
<g id="node6" class="node">
<title>hindsight</title>
<path fill="#e3f2fd" stroke="#1976d2" stroke-width="1.4" d="M534,-150.5C534,-150.5 391,-150.5 391,-150.5 385,-150.5 379,-144.5 379,-138.5 379,-138.5 379,-106.5 379,-106.5 379,-100.5 385,-94.5 391,-94.5 391,-94.5 534,-94.5 534,-94.5 540,-94.5 546,-100.5 546,-106.5 546,-106.5 546,-138.5 546,-138.5 546,-144.5 540,-150.5 534,-150.5"/>
<text text-anchor="start" x="395" y="-130.3" font-family="Helvetica,sans-Serif" font-weight="bold" font-size="14.00">rezolus hindsight</text>
<text text-anchor="start" x="420" y="-118.7" font-family="Helvetica,sans-Serif" font-size="11.00">go back in time</text>
<text text-anchor="start" x="417" y="-107.7" font-family="Helvetica,sans-Serif" font-size="11.00">after an incident</text>
</g>
<!-- agent&#45;&gt;hindsight -->
<g id="edge5" class="edge">
<title>agent&#45;&gt;hindsight</title>
<path fill="none" stroke="#607d8b" d="M169.68,-213.85C226.33,-196.11 306.98,-170.87 369.14,-151.41"/>
<polygon fill="#607d8b" stroke="#607d8b" points="370.45,-154.67 378.95,-148.34 368.36,-147.99 370.45,-154.67"/>
<text text-anchor="middle" x="282" y="-194.9" font-family="Helvetica,sans-Serif" font-size="12.00">always&#45;on buffer</text>
</g>
<!-- grafana -->
<g id="node10" class="node">
<title>grafana</title>
<path fill="#eceff1" stroke="#90a4ae" stroke-width="1.4" d="M917,-371.5C917,-371.5 736,-371.5 736,-371.5 730,-371.5 724,-365.5 724,-359.5 724,-359.5 724,-347.5 724,-347.5 724,-341.5 730,-335.5 736,-335.5 736,-335.5 917,-335.5 917,-335.5 923,-335.5 929,-341.5 929,-347.5 929,-347.5 929,-359.5 929,-359.5 929,-365.5 923,-371.5 917,-371.5"/>
<text text-anchor="start" x="740" y="-350.8" font-family="Helvetica,sans-Serif" font-weight="bold" font-size="14.00">Prometheus / Grafana</text>
</g>
<!-- exporter&#45;&gt;grafana -->
<g id="edge6" class="edge">
<title>exporter&#45;&gt;grafana</title>
<path fill="none" stroke="#607d8b" d="M560.03,-353.5C607.36,-353.5 664.61,-353.5 713.81,-353.5"/>
<polygon fill="#607d8b" stroke="#607d8b" points="713.86,-357 723.86,-353.5 713.86,-350 713.86,-357"/>
<text text-anchor="middle" x="642" y="-356.9" font-family="Helvetica,sans-Serif" font-size="12.00">scrape</text>
</g>
<!-- browser -->
<g id="node11" class="node">
<title>browser</title>
<path fill="#eceff1" stroke="#90a4ae" stroke-width="1.4" d="M882.5,-305.5C882.5,-305.5 770.5,-305.5 770.5,-305.5 764.5,-305.5 758.5,-299.5 758.5,-293.5 758.5,-293.5 758.5,-281.5 758.5,-281.5 758.5,-275.5 764.5,-269.5 770.5,-269.5 770.5,-269.5 882.5,-269.5 882.5,-269.5 888.5,-269.5 894.5,-275.5 894.5,-281.5 894.5,-281.5 894.5,-293.5 894.5,-293.5 894.5,-299.5 888.5,-305.5 882.5,-305.5"/>
<text text-anchor="start" x="774.5" y="-284.8" font-family="Helvetica,sans-Serif" font-weight="bold" font-size="14.00">Your browser</text>
</g>
<!-- view&#45;&gt;browser -->
<g id="edge12" class="edge">
<title>view&#45;&gt;browser</title>
<path fill="none" stroke="#607d8b" d="M549.45,-281.4C609.73,-282.73 689.65,-284.5 747.98,-285.79"/>
<polygon fill="#607d8b" stroke="#607d8b" points="549.46,-277.9 539.39,-281.18 549.31,-284.9 549.46,-277.9"/>
<polygon fill="#607d8b" stroke="#607d8b" points="748.17,-289.29 758.25,-286.01 748.33,-282.29 748.17,-289.29"/>
</g>
<!-- recording -->
<g id="node9" class="node">
<title>recording</title>
<path fill="#ffe0b2" stroke="#f57c00" stroke-width="1.4" d="M882,-232.76C882,-235.86 857.12,-238.38 826.5,-238.38 795.88,-238.38 771,-235.86 771,-232.76 771,-232.76 771,-182.24 771,-182.24 771,-179.14 795.88,-176.62 826.5,-176.62 857.12,-176.62 882,-179.14 882,-182.24 882,-182.24 882,-232.76 882,-232.76"/>
<path fill="none" stroke="#f57c00" stroke-width="1.4" d="M882,-232.76C882,-229.66 857.12,-227.15 826.5,-227.15 795.88,-227.15 771,-229.66 771,-232.76"/>
<text text-anchor="start" x="787" y="-209.8" font-family="Helvetica,sans-Serif" font-weight="bold" font-size="14.00">Recording</text>
<text text-anchor="start" x="793" y="-198.2" font-family="Helvetica,sans-Serif" font-size="11.00">.parquet file</text>
</g>
<!-- record&#45;&gt;recording -->
<g id="edge7" class="edge">
<title>record&#45;&gt;recording</title>
<path fill="none" stroke="#607d8b" d="M535.02,-205.9C600.7,-206.26 697.19,-206.79 760.66,-207.14"/>
<polygon fill="#607d8b" stroke="#607d8b" points="760.93,-210.64 770.95,-207.2 760.97,-203.64 760.93,-210.64"/>
</g>
<!-- hindsight&#45;&gt;recording -->
<g id="edge8" class="edge">
<title>hindsight&#45;&gt;recording</title>
<path fill="none" stroke="#607d8b" d="M546.04,-107.2C590.01,-102.2 644.47,-101.11 691,-115.5 700.69,-118.5 741.7,-146.98 775.92,-171.48"/>
<polygon fill="#607d8b" stroke="#607d8b" points="774.28,-174.61 784.45,-177.6 778.36,-168.92 774.28,-174.61"/>
<text text-anchor="middle" x="642" y="-118.9" font-family="Helvetica,sans-Serif" font-size="12.00">dump on trigger</text>
</g>
<!-- mcp -->
<g id="node7" class="node">
<title>mcp</title>
<path fill="#e3f2fd" stroke="#1976d2" stroke-width="1.4" d="M880.5,-45C880.5,-45 772.5,-45 772.5,-45 766.5,-45 760.5,-39 760.5,-33 760.5,-33 760.5,-12 760.5,-12 760.5,-6 766.5,0 772.5,0 772.5,0 880.5,0 880.5,0 886.5,0 892.5,-6 892.5,-12 892.5,-12 892.5,-33 892.5,-33 892.5,-39 886.5,-45 880.5,-45"/>
<text text-anchor="start" x="779.5" y="-24.8" font-family="Helvetica,sans-Serif" font-weight="bold" font-size="14.00">rezolus mcp</text>
<text text-anchor="start" x="776.5" y="-13.2" font-family="Helvetica,sans-Serif" font-size="11.00">AI&#45;guided analysis</text>
</g>
<!-- pqtools -->
<g id="node8" class="node">
<title>pqtools</title>
<path fill="#e3f2fd" stroke="#1976d2" stroke-width="1.4" d="M910,-119C910,-119 743,-119 743,-119 737,-119 731,-113 731,-107 731,-107 731,-86 731,-86 731,-80 737,-74 743,-74 743,-74 910,-74 910,-74 916,-74 922,-80 922,-86 922,-86 922,-107 922,-107 922,-113 916,-119 910,-119"/>
<text text-anchor="start" x="764.5" y="-98.8" font-family="Helvetica,sans-Serif" font-weight="bold" font-size="14.00">rezolus parquet</text>
<text text-anchor="start" x="747" y="-87.2" font-family="Helvetica,sans-Serif" font-size="11.00">inspect · annotate · combine</text>
</g>
<!-- recording&#45;&gt;view -->
<g id="edge9" class="edge">
<title>recording&#45;&gt;view</title>
<path fill="none" stroke="#8d6e63" d="M770.91,-218.36C712.18,-230.04 617.98,-248.77 549.32,-262.43"/>
<polygon fill="#8d6e63" stroke="#8d6e63" points="548.51,-259.02 539.39,-264.41 549.88,-265.89 548.51,-259.02"/>
<text text-anchor="middle" x="642" y="-254.9" font-family="Helvetica,sans-Serif" font-size="12.00">explore</text>
</g>
<!-- recording&#45;&gt;mcp -->
<g id="edge10" class="edge">
<title>recording&#45;&gt;mcp</title>
<path fill="none" stroke="#8d6e63" d="M770.85,-205.22C729.81,-200.26 676.52,-186.25 649,-148 614.56,-100.14 688.27,-63.95 750.94,-43.02"/>
<polygon fill="#8d6e63" stroke="#8d6e63" points="752.06,-46.34 760.49,-39.92 749.9,-39.68 752.06,-46.34"/>
<text text-anchor="middle" x="642" y="-138.4" font-family="Helvetica,sans-Serif" font-size="12.00">analyze</text>
</g>
<!-- recording&#45;&gt;pqtools -->
<g id="edge11" class="edge">
<title>recording&#45;&gt;pqtools</title>
<path fill="none" stroke="#8d6e63" d="M826.5,-176.38C826.5,-161.77 826.5,-144.35 826.5,-129.5"/>
<polygon fill="#8d6e63" stroke="#8d6e63" points="830,-129.23 826.5,-119.23 823,-129.23 830,-129.23"/>
<text text-anchor="middle" x="817" y="-144.68" font-family="Helvetica,sans-Serif" font-size="12.00">manage</text>
</g>
<!-- llm -->
<g id="node12" class="node">
<title>llm</title>
<path fill="#eceff1" stroke="#90a4ae" stroke-width="1.4" d="M513,-52.5C513,-52.5 412,-52.5 412,-52.5 406,-52.5 400,-46.5 400,-40.5 400,-40.5 400,-28.5 400,-28.5 400,-22.5 406,-16.5 412,-16.5 412,-16.5 513,-16.5 513,-16.5 519,-16.5 525,-22.5 525,-28.5 525,-28.5 525,-40.5 525,-40.5 525,-46.5 519,-52.5 513,-52.5"/>
<text text-anchor="start" x="416" y="-31.8" font-family="Helvetica,sans-Serif" font-weight="bold" font-size="14.00">AI assistant</text>
</g>
<!-- llm&#45;&gt;mcp -->
<g id="edge13" class="edge">
<title>llm&#45;&gt;mcp</title>
<path fill="none" stroke="#607d8b" d="M535.57,-32.11C597.64,-30.05 686.94,-27.09 749.99,-25"/>
<polygon fill="#607d8b" stroke="#607d8b" points="535.2,-28.62 525.32,-32.45 535.43,-35.62 535.2,-28.62"/>
<polygon fill="#607d8b" stroke="#607d8b" points="750.39,-28.49 760.27,-24.66 750.16,-21.5 750.39,-28.49"/>
<text text-anchor="middle" x="642" y="-33.9" font-family="Helvetica,sans-Serif" font-size="12.00">ask</text>
</g>
</g>
</svg>
