<?xml version="1.0" encoding="UTF-8" standalone="no"?>
<!DOCTYPE svg PUBLIC "-//W3C//DTD SVG 1.1//EN"
 "http://www.w3.org/Graphics/SVG/1.1/DTD/svg11.dtd">
<!-- Generated by graphviz version 2.43.0 (0)
 -->
<!-- Title: rezolus Pages: 1 -->
<svg width="1108pt" height="473pt"
 viewBox="0.00 0.00 1108.00 473.00" xmlns="http://www.w3.org/2000/svg" xmlns:xlink="http://www.w3.org/1999/xlink">
<g id="graph0" class="graph" transform="scale(1 1) rotate(0) translate(4 469)">
<title>rezolus</title>
<polygon fill="white" stroke="transparent" points="-4,4 -4,-469 1104,-469 1104,4 -4,4"/>
<text text-anchor="middle" x="550" y="-446.6" font-family="Helvetica,sans-Serif" font-size="18.00">Rezolus — components &amp; data flow (one binary, many roles)</text>
<g id="clust1" class="cluster">
<title>cluster_sources</title>
<path fill="#eef5e3" stroke="#c8ddb0" d="M20,-8C20,-8 196,-8 196,-8 202,-8 208,-14 208,-20 208,-20 208,-228 208,-228 208,-234 202,-240 196,-240 196,-240 20,-240 20,-240 14,-240 8,-234 8,-228 8,-228 8,-20 8,-20 8,-14 14,-8 20,-8"/>
<text text-anchor="middle" x="108" y="-225.6" font-family="Helvetica,sans-Serif" font-size="13.00">Observed systems</text>
</g>
<g id="clust2" class="cluster">
<title>cluster_binary</title>
<path fill="#e9f1fb" stroke="#7aa7d9" d="M327,-87C327,-87 817,-87 817,-87 823,-87 829,-93 829,-99 829,-99 829,-365 829,-365 829,-371 823,-377 817,-377 817,-377 327,-377 327,-377 321,-377 315,-371 315,-365 315,-365 315,-99 315,-99 315,-93 321,-87 327,-87"/>
<text text-anchor="middle" x="572" y="-361.8" font-family="Helvetica,sans-Serif" font-size="14.00">rezolus (single binary)</text>
</g>
<g id="clust3" class="cluster">
<title>cluster_out</title>
<path fill="#fbf3e2" stroke="#e6c48a" d="M946,-164C946,-164 1086,-164 1086,-164 1092,-164 1098,-170 1098,-176 1098,-176 1098,-417 1098,-417 1098,-423 1092,-429 1086,-429 1086,-429 946,-429 946,-429 940,-429 934,-423 934,-417 934,-417 934,-176 934,-176 934,-170 940,-164 946,-164"/>
<text text-anchor="middle" x="1016" y="-414.6" font-family="Helvetica,sans-Serif" font-size="13.00">Artifacts &amp; consumers</text>
</g>
<!-- kernel -->
<g id="node1" class="node">
<title>kernel</title>
<polygon fill="#dcedc8" stroke="black" stroke-width="1.2" points="200,-141 16,-141 16,-85 200,-85 200,-141"/>
<text text-anchor="middle" x="108" y="-128.2" font-family="Helvetica,sans-Serif" font-size="11.00">Kernel &amp; CPU</text>
<text text-anchor="middle" x="108" y="-116.2" font-family="Helvetica,sans-Serif" font-size="11.00">(eBPF, perf events)</text>
<text text-anchor="middle" x="108" y="-104.2" font-family="Helvetica,sans-Serif" font-size="11.00">scheduler · syscalls · block I/O</text>
<text text-anchor="middle" x="108" y="-92.2" font-family="Helvetica,sans-Serif" font-size="11.00">TCP/network · cache · TLB</text>
</g>
<!-- agent -->
<g id="node4" class="node">
<title>agent</title>
<polygon fill="#bbdefb" stroke="black" stroke-width="1.2" points="500.5,-216 333.5,-216 333.5,-160 500.5,-160 500.5,-216"/>
<text text-anchor="middle" x="417" y="-203.2" font-family="Helvetica,sans-Serif" font-size="11.00">Agent</text>
<text text-anchor="middle" x="417" y="-191.2" font-family="Helvetica,sans-Serif" font-size="11.00">collects via samplers,</text>
<text text-anchor="middle" x="417" y="-179.2" font-family="Helvetica,sans-Serif" font-size="11.00">serves msgpack over HTTP</text>
<text text-anchor="middle" x="417" y="-167.2" font-family="Helvetica,sans-Serif" font-size="11.00">(:4241)</text>
</g>
<!-- kernel&#45;&gt;agent -->
<g id="edge1" class="edge">
<title>kernel&#45;&gt;agent</title>
<path fill="none" stroke="#555555" d="M200.28,-135.3C239.22,-144.81 284.6,-155.9 323.65,-165.44"/>
<polygon fill="#555555" stroke="#555555" points="322.9,-168.86 333.44,-167.83 324.56,-162.06 322.9,-168.86"/>
<text text-anchor="middle" x="261.5" y="-166.8" font-family="Helvetica,sans-Serif" font-size="9.00">in&#45;kernel</text>
<text text-anchor="middle" x="261.5" y="-156.8" font-family="Helvetica,sans-Serif" font-size="9.00">histograms</text>
</g>
<!-- gpu -->
<g id="node2" class="node">
<title>gpu</title>
<polygon fill="#dcedc8" stroke="black" stroke-width="1.2" points="171,-210 45,-210 45,-166 171,-166 171,-210"/>
<text text-anchor="middle" x="108" y="-197.2" font-family="Helvetica,sans-Serif" font-size="11.00">GPU</text>
<text text-anchor="middle" x="108" y="-185.2" font-family="Helvetica,sans-Serif" font-size="11.00">(NVIDIA NVML/GPM,</text>
<text text-anchor="middle" x="108" y="-173.2" font-family="Helvetica,sans-Serif" font-size="11.00">Apple on macOS)</text>
</g>
<!-- gpu&#45;&gt;agent -->
<g id="edge2" class="edge">
<title>gpu&#45;&gt;agent</title>
<path fill="none" stroke="#555555" d="M171.13,-188C214.81,-188 274.02,-188 323.27,-188"/>
<polygon fill="#555555" stroke="#555555" points="323.3,-191.5 333.3,-188 323.3,-184.5 323.3,-191.5"/>
</g>
<!-- services -->
<g id="node3" class="node">
<title>services</title>
<polygon fill="#dcedc8" stroke="black" stroke-width="1.2" points="185,-60 31,-60 31,-16 185,-16 185,-60"/>
<text text-anchor="middle" x="108" y="-47.2" font-family="Helvetica,sans-Serif" font-size="11.00">Services &amp; inference</text>
<text text-anchor="middle" x="108" y="-35.2" font-family="Helvetica,sans-Serif" font-size="11.00">(vLLM · SGLang · Valkey)</text>
<text text-anchor="middle" x="108" y="-23.2" font-family="Helvetica,sans-Serif" font-size="11.00">Prometheus endpoints</text>
</g>
<!-- recorder -->
<g id="node6" class="node">
<title>recorder</title>
<polygon fill="#bbdefb" stroke="black" stroke-width="1.2" points="802,-208 671,-208 671,-164 802,-164 802,-208"/>
<text text-anchor="middle" x="736.5" y="-195.2" font-family="Helvetica,sans-Serif" font-size="11.00">Recorder</text>
<text text-anchor="middle" x="736.5" y="-183.2" font-family="Helvetica,sans-Serif" font-size="11.00">snapshots → Parquet</text>
<text text-anchor="middle" x="736.5" y="-171.2" font-family="Helvetica,sans-Serif" font-size="11.00">(on demand)</text>
</g>
<!-- services&#45;&gt;recorder -->
<g id="edge3" class="edge">
<title>services&#45;&gt;recorder</title>
<path fill="none" stroke="#555555" stroke-dasharray="5,2" d="M185.23,-48.48C285.38,-63.28 466.12,-93.54 616,-138 619.16,-138.94 644.83,-149.22 671.57,-160.03"/>
<polygon fill="#555555" stroke="#555555" points="670.46,-163.36 681.04,-163.86 673.08,-156.87 670.46,-163.36"/>
<text text-anchor="middle" x="417" y="-121.8" font-family="Helvetica,sans-Serif" font-size="9.00">scrape</text>
<text text-anchor="middle" x="417" y="-111.8" font-family="Helvetica,sans-Serif" font-size="9.00">Prometheus</text>
</g>
<!-- exporter -->
<g id="node5" class="node">
<title>exporter</title>
<polygon fill="#bbdefb" stroke="black" stroke-width="1.2" points="817,-139 656,-139 656,-95 817,-95 817,-139"/>
<text text-anchor="middle" x="736.5" y="-126.2" font-family="Helvetica,sans-Serif" font-size="11.00">Exporter</text>
<text text-anchor="middle" x="736.5" y="-114.2" font-family="Helvetica,sans-Serif" font-size="11.00">summarizes histograms →</text>
<text text-anchor="middle" x="736.5" y="-102.2" font-family="Helvetica,sans-Serif" font-size="11.00">Prometheus exposition</text>
</g>
<!-- agent&#45;&gt;exporter -->
<g id="edge4" class="edge">
<title>agent&#45;&gt;exporter</title>
<path fill="none" stroke="#1565c0" stroke-width="1.6" d="M500.59,-169.53C545.18,-159.56 600.28,-147.24 645.91,-137.04"/>
<polygon fill="#1565c0" stroke="#1565c0" stroke-width="1.6" points="646.79,-140.42 655.79,-134.83 645.27,-133.59 646.79,-140.42"/>
<text text-anchor="middle" x="581.5" y="-170.8" font-family="Helvetica,sans-Serif" font-size="9.00">msgpack</text>
<text text-anchor="middle" x="581.5" y="-160.8" font-family="Helvetica,sans-Serif" font-size="9.00">/metrics/binary</text>
</g>
<!-- agent&#45;&gt;recorder -->
<g id="edge5" class="edge">
<title>agent&#45;&gt;recorder</title>
<path fill="none" stroke="#1565c0" stroke-width="1.6" d="M500.59,-187.48C550.16,-187.17 612.72,-186.77 660.82,-186.47"/>
<polygon fill="#1565c0" stroke="#1565c0" stroke-width="1.6" points="660.87,-189.97 670.85,-186.41 660.83,-182.97 660.87,-189.97"/>
<text text-anchor="middle" x="581.5" y="-189.8" font-family="Helvetica,sans-Serif" font-size="9.00">msgpack</text>
</g>
<!-- hindsight -->
<g id="node7" class="node">
<title>hindsight</title>
<polygon fill="#bbdefb" stroke="black" stroke-width="1.2" points="807.5,-277 665.5,-277 665.5,-233 807.5,-233 807.5,-277"/>
<text text-anchor="middle" x="736.5" y="-264.2" font-family="Helvetica,sans-Serif" font-size="11.00">Hindsight</text>
<text text-anchor="middle" x="736.5" y="-252.2" font-family="Helvetica,sans-Serif" font-size="11.00">on&#45;disk ring buffer,</text>
<text text-anchor="middle" x="736.5" y="-240.2" font-family="Helvetica,sans-Serif" font-size="11.00">dump after an incident</text>
</g>
<!-- agent&#45;&gt;hindsight -->
<g id="edge6" class="edge">
<title>agent&#45;&gt;hindsight</title>
<path fill="none" stroke="#1565c0" stroke-width="1.6" d="M500.59,-205.43C548.36,-215.51 608.2,-228.14 655.52,-238.12"/>
<polygon fill="#1565c0" stroke="#1565c0" stroke-width="1.6" points="654.91,-241.57 665.42,-240.21 656.36,-234.72 654.91,-241.57"/>
<text text-anchor="middle" x="581.5" y="-231.8" font-family="Helvetica,sans-Serif" font-size="9.00">msgpack</text>
</g>
<!-- viewer -->
<g id="node8" class="node">
<title>viewer</title>
<polygon fill="#bbdefb" stroke="black" stroke-width="1.2" points="821,-346 652,-346 652,-302 821,-302 821,-346"/>
<text text-anchor="middle" x="736.5" y="-333.2" font-family="Helvetica,sans-Serif" font-size="11.00">Viewer</text>
<text text-anchor="middle" x="736.5" y="-321.2" font-family="Helvetica,sans-Serif" font-size="11.00">web dashboard,</text>
<text text-anchor="middle" x="736.5" y="-309.2" font-family="Helvetica,sans-Serif" font-size="11.00">in&#45;browser PromQL (WASM)</text>
</g>
<!-- agent&#45;&gt;viewer -->
<g id="edge7" class="edge">
<title>agent&#45;&gt;viewer</title>
<path fill="none" stroke="#1565c0" stroke-width="1.6" d="M481.8,-216.1C491.58,-220.41 501.56,-224.82 511,-229 527.01,-236.09 530.95,-238 547,-245 593.53,-265.31 605.15,-270.43 652,-290 658.21,-292.59 664.69,-295.28 671.17,-297.94"/>
<polygon fill="#1565c0" stroke="#1565c0" stroke-width="1.6" points="670.06,-301.27 680.64,-301.83 672.72,-294.8 670.06,-301.27"/>
<text text-anchor="middle" x="581.5" y="-276.8" font-family="Helvetica,sans-Serif" font-size="9.00">msgpack (live)</text>
</g>
<!-- prometheus -->
<g id="node12" class="node">
<title>prometheus</title>
<polygon fill="#ffe0b2" stroke="black" stroke-width="1.2" points="1084,-208 947,-208 947,-172 1084,-172 1084,-208"/>
<text text-anchor="middle" x="1015.5" y="-187.2" font-family="Helvetica,sans-Serif" font-size="11.00">Prometheus / Grafana</text>
</g>
<!-- exporter&#45;&gt;prometheus -->
<g id="edge8" class="edge">
<title>exporter&#45;&gt;prometheus</title>
<path fill="none" stroke="#555555" stroke-dasharray="5,2" d="M817.25,-138.02C854.81,-147.91 899.44,-159.68 936.75,-169.51"/>
<polygon fill="#555555" stroke="#555555" points="936,-172.93 946.56,-172.1 937.78,-166.16 936,-172.93"/>
<text text-anchor="middle" x="881.5" y="-162.8" font-family="Helvetica,sans-Serif" font-size="9.00">scrape</text>
</g>
<!-- parquet -->
<g id="node11" class="node">
<title>parquet</title>
<path fill="#ffe0b2" stroke="black" stroke-width="1.2" d="M1058,-273C1058,-275.21 1038.95,-277 1015.5,-277 992.05,-277 973,-275.21 973,-273 973,-273 973,-237 973,-237 973,-234.79 992.05,-233 1015.5,-233 1038.95,-233 1058,-234.79 1058,-237 1058,-237 1058,-273 1058,-273"/>
<path fill="none" stroke="black" stroke-width="1.2" d="M1058,-273C1058,-270.79 1038.95,-269 1015.5,-269 992.05,-269 973,-270.79 973,-273"/>
<text text-anchor="middle" x="1015.5" y="-258.2" font-family="Helvetica,sans-Serif" font-size="11.00">Parquet files</text>
<text text-anchor="middle" x="1015.5" y="-246.2" font-family="Helvetica,sans-Serif" font-size="11.00">(recordings)</text>
</g>
<!-- recorder&#45;&gt;parquet -->
<g id="edge9" class="edge">
<title>recorder&#45;&gt;parquet</title>
<path fill="none" stroke="#555555" d="M802.09,-202.09C850.99,-214.27 917.27,-230.78 962.71,-242.1"/>
<polygon fill="#555555" stroke="#555555" points="962.1,-245.55 972.65,-244.58 963.79,-238.76 962.1,-245.55"/>
</g>
<!-- hindsight&#45;&gt;parquet -->
<g id="edge10" class="edge">
<title>hindsight&#45;&gt;parquet</title>
<path fill="none" stroke="#555555" d="M807.76,-255C855.98,-255 918.92,-255 962.63,-255"/>
<polygon fill="#555555" stroke="#555555" points="962.76,-258.5 972.76,-255 962.76,-251.5 962.76,-258.5"/>
<text text-anchor="middle" x="881.5" y="-267.8" font-family="Helvetica,sans-Serif" font-size="9.00">snapshot</text>
<text text-anchor="middle" x="881.5" y="-257.8" font-family="Helvetica,sans-Serif" font-size="9.00">on trigger</text>
</g>
<!-- browser -->
<g id="node13" class="node">
<title>browser</title>
<polygon fill="#ffe0b2" stroke="black" stroke-width="1.2" points="1046.5,-338 984.5,-338 984.5,-302 1046.5,-302 1046.5,-338"/>
<text text-anchor="middle" x="1015.5" y="-317.2" font-family="Helvetica,sans-Serif" font-size="11.00">Browser</text>
</g>
<!-- viewer&#45;&gt;browser -->
<g id="edge14" class="edge">
<title>viewer&#45;&gt;browser</title>
<path fill="none" stroke="#555555" d="M831.54,-322.64C880.08,-321.94 936.76,-321.12 974.03,-320.58"/>
<polygon fill="#555555" stroke="#555555" points="831.31,-319.14 821.36,-322.79 831.41,-326.14 831.31,-319.14"/>
<polygon fill="#555555" stroke="#555555" points="974.52,-324.08 984.47,-320.43 974.42,-317.08 974.52,-324.08"/>
<text text-anchor="middle" x="881.5" y="-324.8" font-family="Helvetica,sans-Serif" font-size="9.00">dashboard</text>
</g>
<!-- pqtools -->
<g id="node9" class="node">
<title>pqtools</title>
<polygon fill="#bbdefb" stroke="black" stroke-width="1.2" points="511,-277 323,-277 323,-241 511,-241 511,-277"/>
<text text-anchor="middle" x="417" y="-262.2" font-family="Helvetica,sans-Serif" font-size="11.00">Parquet Tools</text>
<text text-anchor="middle" x="417" y="-250.2" font-family="Helvetica,sans-Serif" font-size="11.00">metadata · annotate · combine</text>
</g>
<!-- mcp -->
<g id="node10" class="node">
<title>mcp</title>
<polygon fill="#bbdefb" stroke="black" stroke-width="1.2" points="508,-346 326,-346 326,-302 508,-302 508,-346"/>
<text text-anchor="middle" x="417" y="-333.2" font-family="Helvetica,sans-Serif" font-size="11.00">MCP Server</text>
<text text-anchor="middle" x="417" y="-321.2" font-family="Helvetica,sans-Serif" font-size="11.00">PromQL · anomaly detection ·</text>
<text text-anchor="middle" x="417" y="-309.2" font-family="Helvetica,sans-Serif" font-size="11.00">correlation for LLMs</text>
</g>
<!-- llm -->
<g id="node14" class="node">
<title>llm</title>
<polygon fill="#ffe0b2" stroke="black" stroke-width="1.2" points="1061.5,-399 969.5,-399 969.5,-363 1061.5,-363 1061.5,-399"/>
<text text-anchor="middle" x="1015.5" y="-378.2" font-family="Helvetica,sans-Serif" font-size="11.00">LLM assistant</text>
</g>
<!-- mcp&#45;&gt;llm -->
<g id="edge15" class="edge">
<title>mcp&#45;&gt;llm</title>
<path fill="none" stroke="#555555" d="M518.12,-340.95C559.47,-347.44 607.94,-354.38 652,-359 760.63,-370.4 888.23,-376.44 959.39,-379.16"/>
<polygon fill="#555555" stroke="#555555" points="518.47,-337.46 508.05,-339.36 517.38,-344.38 518.47,-337.46"/>
<polygon fill="#555555" stroke="#555555" points="959.34,-382.66 969.47,-379.54 959.61,-375.67 959.34,-382.66"/>
<text text-anchor="middle" x="736.5" y="-374.8" font-family="Helvetica,sans-Serif" font-size="9.00">MCP / stdio</text>
</g>
<!-- parquet&#45;&gt;viewer -->
<g id="edge11" class="edge">
<title>parquet&#45;&gt;viewer</title>
<path fill="none" stroke="#8d6e63" d="M972.84,-242.52C939.54,-235.02 892.69,-230.15 857,-249 837.49,-259.3 846.38,-276.41 829,-290 825.86,-292.45 822.53,-294.75 819.06,-296.88"/>
<polygon fill="#8d6e63" stroke="#8d6e63" points="817.19,-293.92 810.2,-301.88 820.63,-300.01 817.19,-293.92"/>
</g>
<!-- parquet&#45;&gt;pqtools -->
<g id="edge13" class="edge">
<title>parquet&#45;&gt;pqtools</title>
<path fill="none" stroke="#8d6e63" d="M972.87,-244.79C958.99,-239.62 944.43,-232.02 934,-221 908.68,-194.25 925.42,-174.29 906,-143 879.98,-101.07 874.41,-82.32 829,-63 756.61,-32.2 726.91,-38.99 652,-63 597.39,-80.5 582.33,-92.82 547,-138 520.21,-172.26 542.73,-199.26 511,-229 508.52,-231.32 505.87,-233.46 503.07,-235.44"/>
<polygon fill="#8d6e63" stroke="#8d6e63" points="500.97,-232.63 494.32,-240.88 504.66,-238.57 500.97,-232.63"/>
<text text-anchor="middle" x="736.5" y="-75.8" font-family="Helvetica,sans-Serif" font-size="9.00">inspect · annotate ·</text>
<text text-anchor="middle" x="736.5" y="-65.8" font-family="Helvetica,sans-Serif" font-size="9.00">combine</text>
</g>
<!-- parquet&#45;&gt;mcp -->
<g id="edge12" class="edge">
<title>parquet&#45;&gt;mcp</title>
<path fill="none" stroke="#8d6e63" d="M972.71,-245.96C958.47,-240.89 943.72,-233.04 934,-221 891.95,-168.91 947.06,-125.88 906,-73 836.07,17.06 757.76,5.61 652,-37 591.94,-61.2 579.1,-81.76 547,-138 512.58,-198.29 557.11,-238.1 511,-290 509.25,-291.97 507.38,-293.82 505.41,-295.57"/>
<polygon fill="#8d6e63" stroke="#8d6e63" points="503.11,-292.92 497.33,-301.79 507.38,-298.46 503.11,-292.92"/>
</g>
</g>
</svg>
