<?xml version="1.0" encoding="UTF-8" standalone="no"?>
<!DOCTYPE svg PUBLIC "-//W3C//DTD SVG 1.1//EN"
 "http://www.w3.org/Graphics/SVG/1.1/DTD/svg11.dtd">
<!-- Generated by graphviz version 2.43.0 (0)
 -->
<!-- Title: rezolus Pages: 1 -->
<svg width="884pt" height="551pt"
 viewBox="0.00 0.00 884.00 550.88" xmlns="http://www.w3.org/2000/svg" xmlns:xlink="http://www.w3.org/1999/xlink">
<g id="graph0" class="graph" transform="scale(1 1) rotate(0) translate(4 546.88)">
<title>rezolus</title>
<polygon fill="white" stroke="transparent" points="-4,4 -4,-546.88 880,-546.88 880,4 -4,4"/>
<!-- system -->
<g id="node1" class="node">
<title>system</title>
<path fill="#e8f5e0" stroke="#7cb342" stroke-width="1.4" d="M501,-542.88C501,-542.88 326,-542.88 326,-542.88 320,-542.88 314,-536.88 314,-530.88 314,-530.88 314,-487.88 314,-487.88 314,-481.88 320,-475.88 326,-475.88 326,-475.88 501,-475.88 501,-475.88 507,-475.88 513,-481.88 513,-487.88 513,-487.88 513,-530.88 513,-530.88 513,-536.88 507,-542.88 501,-542.88"/>
<text text-anchor="start" x="361" y="-522.67" font-family="Helvetica,sans-Serif" font-weight="bold" font-size="14.00">Your systems</text>
<text text-anchor="start" x="330" y="-511.07" font-family="Helvetica,sans-Serif" font-size="11.00">CPU · GPU · kernel · scheduler</text>
<text text-anchor="start" x="334" y="-500.07" font-family="Helvetica,sans-Serif" font-size="11.00">syscalls · block I/O · network</text>
<text text-anchor="start" x="356" y="-489.07" font-family="Helvetica,sans-Serif" font-size="11.00">containers · services</text>
</g>
<!-- agent -->
<g id="node2" class="node">
<title>agent</title>
<path fill="#bbdefb" stroke="#1976d2" stroke-width="1.8" d="M471.5,-408.88C471.5,-408.88 355.5,-408.88 355.5,-408.88 349.5,-408.88 343.5,-402.88 343.5,-396.88 343.5,-396.88 343.5,-375.88 343.5,-375.88 343.5,-369.88 349.5,-363.88 355.5,-363.88 355.5,-363.88 471.5,-363.88 471.5,-363.88 477.5,-363.88 483.5,-369.88 483.5,-375.88 483.5,-375.88 483.5,-396.88 483.5,-396.88 483.5,-402.88 477.5,-408.88 471.5,-408.88"/>
<text text-anchor="start" x="359.5" y="-388.68" font-family="Helvetica,sans-Serif" font-weight="bold" font-size="14.00">rezolus agent</text>
<text text-anchor="start" x="359.5" y="-377.07" font-family="Helvetica,sans-Serif" font-size="11.00">always&#45;on collector</text>
</g>
<!-- system&#45;&gt;agent -->
<g id="edge8" class="edge">
<title>system&#45;&gt;agent</title>
<path fill="none" stroke="#607d8b" d="M413.5,-475.63C413.5,-458.13 413.5,-436.67 413.5,-419.29"/>
<polygon fill="#607d8b" stroke="#607d8b" points="417,-419.07 413.5,-409.07 410,-419.07 417,-419.07"/>
<text text-anchor="middle" x="433.5" y="-439.27" font-family="Helvetica,sans-Serif" font-size="12.00">collect</text>
</g>
<!-- exporter -->
<g id="node3" class="node">
<title>exporter</title>
<path fill="#e3f2fd" stroke="#1976d2" stroke-width="1.4" d="M183,-291.38C183,-291.38 12,-291.38 12,-291.38 6,-291.38 0,-285.38 0,-279.38 0,-279.38 0,-258.38 0,-258.38 0,-252.38 6,-246.38 12,-246.38 12,-246.38 183,-246.38 183,-246.38 189,-246.38 195,-252.38 195,-258.38 195,-258.38 195,-279.38 195,-279.38 195,-285.38 189,-291.38 183,-291.38"/>
<text text-anchor="start" x="32.5" y="-271.18" font-family="Helvetica,sans-Serif" font-weight="bold" font-size="14.00">rezolus exporter</text>
<text text-anchor="start" x="16" y="-259.57" font-family="Helvetica,sans-Serif" font-size="11.00">Prometheus metrics endpoint</text>
</g>
<!-- agent&#45;&gt;exporter -->
<g id="edge9" class="edge">
<title>agent&#45;&gt;exporter</title>
<path fill="none" stroke="#607d8b" d="M354.43,-363.79C300.99,-344.25 222.27,-315.48 166.06,-294.94"/>
<polygon fill="#607d8b" stroke="#607d8b" points="167.14,-291.6 156.54,-291.46 164.74,-298.18 167.14,-291.6"/>
<text text-anchor="middle" x="296" y="-327.27" font-family="Helvetica,sans-Serif" font-size="12.00">expose</text>
</g>
<!-- view -->
<g id="node4" class="node">
<title>view</title>
<path fill="#e3f2fd" stroke="#1976d2" stroke-width="1.4" d="M864,-291.38C864,-291.38 735,-291.38 735,-291.38 729,-291.38 723,-285.38 723,-279.38 723,-279.38 723,-258.38 723,-258.38 723,-252.38 729,-246.38 735,-246.38 735,-246.38 864,-246.38 864,-246.38 870,-246.38 876,-252.38 876,-258.38 876,-258.38 876,-279.38 876,-279.38 876,-285.38 870,-291.38 864,-291.38"/>
<text text-anchor="start" x="750.5" y="-271.18" font-family="Helvetica,sans-Serif" font-weight="bold" font-size="14.00">rezolus view</text>
<text text-anchor="start" x="739" y="-259.57" font-family="Helvetica,sans-Serif" font-size="11.00">interactive dashboard</text>
</g>
<!-- agent&#45;&gt;view -->
<g id="edge10" class="edge">
<title>agent&#45;&gt;view</title>
<path fill="none" stroke="#607d8b" d="M483.73,-369.01C519.99,-360.19 564.83,-348.7 604.5,-336.88 646.85,-324.24 693.71,-308.21 730.88,-295"/>
<polygon fill="#607d8b" stroke="#607d8b" points="732.36,-298.19 740.6,-291.53 730,-291.59 732.36,-298.19"/>
<text text-anchor="middle" x="672" y="-327.27" font-family="Helvetica,sans-Serif" font-size="12.00">watch live</text>
</g>
<!-- record -->
<g id="node5" class="node">
<title>record</title>
<path fill="#e3f2fd" stroke="#1976d2" stroke-width="1.4" d="M400,-291.38C400,-291.38 279,-291.38 279,-291.38 273,-291.38 267,-285.38 267,-279.38 267,-279.38 267,-258.38 267,-258.38 267,-252.38 273,-246.38 279,-246.38 279,-246.38 400,-246.38 400,-246.38 406,-246.38 412,-252.38 412,-258.38 412,-258.38 412,-279.38 412,-279.38 412,-285.38 406,-291.38 400,-291.38"/>
<text text-anchor="start" x="283" y="-271.18" font-family="Helvetica,sans-Serif" font-weight="bold" font-size="14.00">rezolus record</text>
<text text-anchor="start" x="293" y="-259.57" font-family="Helvetica,sans-Serif" font-size="11.00">save a recording</text>
</g>
<!-- agent&#45;&gt;record -->
<g id="edge11" class="edge">
<title>agent&#45;&gt;record</title>
<path fill="none" stroke="#607d8b" d="M399.58,-363.65C388.06,-345.66 371.56,-319.91 358.76,-299.94"/>
<polygon fill="#607d8b" stroke="#607d8b" points="361.7,-298.03 353.36,-291.5 355.8,-301.81 361.7,-298.03"/>
<text text-anchor="middle" x="395.5" y="-327.27" font-family="Helvetica,sans-Serif" font-size="12.00">save</text>
</g>
<!-- hindsight -->
<g id="node6" class="node">
<title>hindsight</title>
<path fill="#e3f2fd" stroke="#1976d2" stroke-width="1.4" d="M639,-296.88C639,-296.88 496,-296.88 496,-296.88 490,-296.88 484,-290.88 484,-284.88 484,-284.88 484,-252.88 484,-252.88 484,-246.88 490,-240.88 496,-240.88 496,-240.88 639,-240.88 639,-240.88 645,-240.88 651,-246.88 651,-252.88 651,-252.88 651,-284.88 651,-284.88 651,-290.88 645,-296.88 639,-296.88"/>
<text text-anchor="start" x="500" y="-276.68" font-family="Helvetica,sans-Serif" font-weight="bold" font-size="14.00">rezolus hindsight</text>
<text text-anchor="start" x="525" y="-265.07" font-family="Helvetica,sans-Serif" font-size="11.00">go back in time</text>
<text text-anchor="start" x="522" y="-254.07" font-family="Helvetica,sans-Serif" font-size="11.00">after an incident</text>
</g>
<!-- agent&#45;&gt;hindsight -->
<g id="edge12" class="edge">
<title>agent&#45;&gt;hindsight</title>
<path fill="none" stroke="#607d8b" d="M442.47,-363.65C465.19,-346.61 497.2,-322.6 523.14,-303.14"/>
<polygon fill="#607d8b" stroke="#607d8b" points="525.43,-305.8 531.33,-297 521.23,-300.2 525.43,-305.8"/>
<text text-anchor="middle" x="545.5" y="-327.27" font-family="Helvetica,sans-Serif" font-size="12.00">always&#45;on buffer</text>
</g>
<!-- exporter&#45;&gt;record -->
<!-- grafana -->
<g id="node10" class="node">
<title>grafana</title>
<path fill="#eceff1" stroke="#90a4ae" stroke-width="1.4" d="M285,-160.94C285,-160.94 104,-160.94 104,-160.94 98,-160.94 92,-154.94 92,-148.94 92,-148.94 92,-136.94 92,-136.94 92,-130.94 98,-124.94 104,-124.94 104,-124.94 285,-124.94 285,-124.94 291,-124.94 297,-130.94 297,-136.94 297,-136.94 297,-148.94 297,-148.94 297,-154.94 291,-160.94 285,-160.94"/>
<text text-anchor="start" x="108" y="-140.24" font-family="Helvetica,sans-Serif" font-weight="bold" font-size="14.00">Prometheus / Grafana</text>
</g>
<!-- exporter&#45;&gt;grafana -->
<g id="edge13" class="edge">
<title>exporter&#45;&gt;grafana</title>
<path fill="none" stroke="#607d8b" d="M114.4,-246.29C131.15,-224.89 156.8,-192.1 174.55,-169.43"/>
<polygon fill="#607d8b" stroke="#607d8b" points="177.52,-171.32 180.92,-161.28 172,-167 177.52,-171.32"/>
<text text-anchor="middle" x="170" y="-204.28" font-family="Helvetica,sans-Serif" font-size="12.00">scrape</text>
</g>
<!-- browser -->
<g id="node11" class="node">
<title>browser</title>
<path fill="#eceff1" stroke="#90a4ae" stroke-width="1.4" d="M737.5,-160.94C737.5,-160.94 625.5,-160.94 625.5,-160.94 619.5,-160.94 613.5,-154.94 613.5,-148.94 613.5,-148.94 613.5,-136.94 613.5,-136.94 613.5,-130.94 619.5,-124.94 625.5,-124.94 625.5,-124.94 737.5,-124.94 737.5,-124.94 743.5,-124.94 749.5,-130.94 749.5,-136.94 749.5,-136.94 749.5,-148.94 749.5,-148.94 749.5,-154.94 743.5,-160.94 737.5,-160.94"/>
<text text-anchor="start" x="629.5" y="-140.24" font-family="Helvetica,sans-Serif" font-weight="bold" font-size="14.00">Your browser</text>
</g>
<!-- view&#45;&gt;browser -->
<g id="edge19" class="edge">
<title>view&#45;&gt;browser</title>
<path fill="none" stroke="#607d8b" d="M771.85,-238.83C751.53,-217.49 724.23,-188.82 704.97,-168.59"/>
<polygon fill="#607d8b" stroke="#607d8b" points="769.52,-241.46 778.95,-246.29 774.59,-236.63 769.52,-241.46"/>
<polygon fill="#607d8b" stroke="#607d8b" points="707.45,-166.11 698.02,-161.28 702.38,-170.94 707.45,-166.11"/>
</g>
<!-- record&#45;&gt;hindsight -->
<!-- recording -->
<g id="node9" class="node">
<title>recording</title>
<path fill="#ffe0b2" stroke="#f57c00" stroke-width="1.4" d="M521,-168.2C521,-171.3 496.12,-173.81 465.5,-173.81 434.88,-173.81 410,-171.3 410,-168.2 410,-168.2 410,-117.68 410,-117.68 410,-114.58 434.88,-112.06 465.5,-112.06 496.12,-112.06 521,-114.58 521,-117.68 521,-117.68 521,-168.2 521,-168.2"/>
<path fill="none" stroke="#f57c00" stroke-width="1.4" d="M521,-168.2C521,-165.1 496.12,-162.59 465.5,-162.59 434.88,-162.59 410,-165.1 410,-168.2"/>
<text text-anchor="start" x="426" y="-145.24" font-family="Helvetica,sans-Serif" font-weight="bold" font-size="14.00">Recording</text>
<text text-anchor="start" x="432" y="-133.64" font-family="Helvetica,sans-Serif" font-size="11.00">.parquet file</text>
</g>
<!-- record&#45;&gt;recording -->
<g id="edge14" class="edge">
<title>record&#45;&gt;recording</title>
<path fill="none" stroke="#607d8b" d="M348.12,-246.2C354.47,-232.14 364.14,-214.06 376.5,-200.88 384.63,-192.2 394.36,-184.26 404.34,-177.25"/>
<polygon fill="#607d8b" stroke="#607d8b" points="406.42,-180.07 412.77,-171.58 402.52,-174.26 406.42,-180.07"/>
</g>
<!-- hindsight&#45;&gt;view -->
<!-- hindsight&#45;&gt;recording -->
<g id="edge15" class="edge">
<title>hindsight&#45;&gt;recording</title>
<path fill="none" stroke="#607d8b" d="M550.4,-240.68C542.15,-228.19 531.82,-213.4 521.5,-200.88 516.11,-194.34 510.11,-187.68 504.09,-181.33"/>
<polygon fill="#607d8b" stroke="#607d8b" points="506.51,-178.8 497.04,-174.04 501.47,-183.66 506.51,-178.8"/>
<text text-anchor="middle" x="580.5" y="-204.28" font-family="Helvetica,sans-Serif" font-size="12.00">dump on trigger</text>
</g>
<!-- mcp -->
<g id="node7" class="node">
<title>mcp</title>
<path fill="#e3f2fd" stroke="#1976d2" stroke-width="1.4" d="M384.5,-45C384.5,-45 276.5,-45 276.5,-45 270.5,-45 264.5,-39 264.5,-33 264.5,-33 264.5,-12 264.5,-12 264.5,-6 270.5,0 276.5,0 276.5,0 384.5,0 384.5,0 390.5,0 396.5,-6 396.5,-12 396.5,-12 396.5,-33 396.5,-33 396.5,-39 390.5,-45 384.5,-45"/>
<text text-anchor="start" x="283.5" y="-24.8" font-family="Helvetica,sans-Serif" font-weight="bold" font-size="14.00">rezolus mcp</text>
<text text-anchor="start" x="280.5" y="-13.2" font-family="Helvetica,sans-Serif" font-size="11.00">AI&#45;guided analysis</text>
</g>
<!-- pqtools -->
<g id="node8" class="node">
<title>pqtools</title>
<path fill="#e3f2fd" stroke="#1976d2" stroke-width="1.4" d="M647,-45C647,-45 480,-45 480,-45 474,-45 468,-39 468,-33 468,-33 468,-12 468,-12 468,-6 474,0 480,0 480,0 647,0 647,0 653,0 659,-6 659,-12 659,-12 659,-33 659,-33 659,-39 653,-45 647,-45"/>
<text text-anchor="start" x="501.5" y="-24.8" font-family="Helvetica,sans-Serif" font-weight="bold" font-size="14.00">rezolus parquet</text>
<text text-anchor="start" x="484" y="-13.2" font-family="Helvetica,sans-Serif" font-size="11.00">inspect · annotate · combine</text>
</g>
<!-- mcp&#45;&gt;pqtools -->
<!-- llm -->
<g id="node12" class="node">
<title>llm</title>
<path fill="#eceff1" stroke="#90a4ae" stroke-width="1.4" d="M181,-40.5C181,-40.5 80,-40.5 80,-40.5 74,-40.5 68,-34.5 68,-28.5 68,-28.5 68,-16.5 68,-16.5 68,-10.5 74,-4.5 80,-4.5 80,-4.5 181,-4.5 181,-4.5 187,-4.5 193,-10.5 193,-16.5 193,-16.5 193,-28.5 193,-28.5 193,-34.5 187,-40.5 181,-40.5"/>
<text text-anchor="start" x="84" y="-19.8" font-family="Helvetica,sans-Serif" font-weight="bold" font-size="14.00">AI assistant</text>
</g>
<!-- mcp&#45;&gt;llm -->
<g id="edge20" class="edge">
<title>mcp&#45;&gt;llm</title>
<path fill="none" stroke="#607d8b" d="M253.99,-22.5C237.41,-22.5 219.91,-22.5 203.46,-22.5"/>
<polygon fill="#607d8b" stroke="#607d8b" points="254.19,-26 264.19,-22.5 254.19,-19 254.19,-26"/>
<polygon fill="#607d8b" stroke="#607d8b" points="203.23,-19 193.23,-22.5 203.23,-26 203.23,-19"/>
<text text-anchor="middle" x="228.75" y="-28.9" font-family="Helvetica,sans-Serif" font-size="12.00">ask</text>
</g>
<!-- recording&#45;&gt;view -->
<g id="edge16" class="edge">
<title>recording&#45;&gt;view</title>
<path fill="none" stroke="#8d6e63" d="M429.83,-173.38C418.11,-186.5 410.58,-201.7 421.5,-213.88 458.36,-254.99 613.96,-232.29 668.5,-240.88 682.85,-243.13 698.01,-245.9 712.73,-248.79"/>
<polygon fill="#8d6e63" stroke="#8d6e63" points="712.34,-252.28 722.83,-250.81 713.71,-245.42 712.34,-252.28"/>
<text text-anchor="middle" x="467" y="-204.28" font-family="Helvetica,sans-Serif" font-size="12.00">open recording</text>
</g>
<!-- recording&#45;&gt;mcp -->
<g id="edge17" class="edge">
<title>recording&#45;&gt;mcp</title>
<path fill="none" stroke="#8d6e63" d="M431.78,-112.36C410.73,-93.89 383.77,-70.24 362.96,-51.98"/>
<polygon fill="#8d6e63" stroke="#8d6e63" points="365.14,-49.23 355.31,-45.27 360.52,-54.49 365.14,-49.23"/>
<text text-anchor="middle" x="421.5" y="-75.4" font-family="Helvetica,sans-Serif" font-size="12.00">analyze</text>
</g>
<!-- recording&#45;&gt;pqtools -->
<g id="edge18" class="edge">
<title>recording&#45;&gt;pqtools</title>
<path fill="none" stroke="#8d6e63" d="M490.23,-112.05C505.18,-93.99 524.16,-71.05 539.05,-53.04"/>
<polygon fill="#8d6e63" stroke="#8d6e63" points="541.9,-55.09 545.58,-45.15 536.51,-50.63 541.9,-55.09"/>
<text text-anchor="middle" x="548.5" y="-75.4" font-family="Helvetica,sans-Serif" font-size="12.00">manage</text>
</g>
<!-- recording&#45;&gt;browser -->
<!-- grafana&#45;&gt;recording -->
<!-- llm&#45;&gt;mcp -->
</g>
</svg>
