<?xml version="1.0" encoding="UTF-8" standalone="no"?>
<!DOCTYPE svg PUBLIC "-//W3C//DTD SVG 1.1//EN"
 "http://www.w3.org/Graphics/SVG/1.1/DTD/svg11.dtd">
<!-- Generated by graphviz version 2.43.0 (0)
 -->
<!-- Title: rezolus Pages: 1 -->
<svg width="934pt" height="598pt"
 viewBox="0.00 0.00 934.00 598.12" xmlns="http://www.w3.org/2000/svg" xmlns:xlink="http://www.w3.org/1999/xlink">
<g id="graph0" class="graph" transform="scale(1 1) rotate(0) translate(4 594.12)">
<title>rezolus</title>
<polygon fill="white" stroke="transparent" points="-4,4 -4,-594.12 930,-594.12 930,4 -4,4"/>
<!-- system -->
<g id="node1" class="node">
<title>system</title>
<path fill="#e8f5e0" stroke="#7cb342" stroke-width="1.4" d="M441,-590.12C441,-590.12 264,-590.12 264,-590.12 258,-590.12 252,-584.12 252,-578.12 252,-578.12 252,-527.12 252,-527.12 252,-521.12 258,-515.12 264,-515.12 264,-515.12 441,-515.12 441,-515.12 447,-515.12 453,-521.12 453,-527.12 453,-527.12 453,-578.12 453,-578.12 453,-584.12 447,-590.12 441,-590.12"/>
<text text-anchor="start" x="293" y="-568.42" font-family="Helvetica,sans-Serif" font-weight="bold" font-size="14.00">Target systems</text>
<text text-anchor="start" x="269.5" y="-552.83" font-family="Helvetica,sans-Serif" font-size="11.00">CPU · GPU · kernel · scheduler</text>
<text text-anchor="start" x="273.5" y="-540.83" font-family="Helvetica,sans-Serif" font-size="11.00">syscalls · block I/O · network</text>
<text text-anchor="start" x="295.5" y="-528.83" font-family="Helvetica,sans-Serif" font-size="11.00">containers · services</text>
</g>
<!-- agent -->
<g id="node3" class="node">
<title>agent</title>
<path fill="#f8bbd0" stroke="#c2185b" stroke-width="1.8" d="M413.5,-448.12C413.5,-448.12 291.5,-448.12 291.5,-448.12 285.5,-448.12 279.5,-442.12 279.5,-436.12 279.5,-436.12 279.5,-397.12 279.5,-397.12 279.5,-391.12 285.5,-385.12 291.5,-385.12 291.5,-385.12 413.5,-385.12 413.5,-385.12 419.5,-385.12 425.5,-391.12 425.5,-397.12 425.5,-397.12 425.5,-436.12 425.5,-436.12 425.5,-442.12 419.5,-448.12 413.5,-448.12"/>
<text text-anchor="start" x="298.5" y="-426.43" font-family="Helvetica,sans-Serif" font-weight="bold" font-size="14.00">rezolus agent</text>
<text text-anchor="start" x="298.5" y="-410.82" font-family="Helvetica,sans-Serif" font-size="11.00">always&#45;on collector</text>
<text text-anchor="start" x="296.5" y="-398.82" font-family="Helvetica,sans-Serif" font-size="11.00">root · in&#45;kernel eBPF</text>
</g>
<!-- system&#45;&gt;agent -->
<g id="edge8" class="edge">
<title>system&#45;&gt;agent</title>
<path fill="none" stroke="#607d8b" d="M352.5,-515.01C352.5,-497.52 352.5,-476.52 352.5,-458.51"/>
<polygon fill="#607d8b" stroke="#607d8b" points="356,-458.3 352.5,-448.3 349,-458.3 356,-458.3"/>
<text text-anchor="middle" x="372.5" y="-478.52" font-family="Helvetica,sans-Serif" font-size="12.00">collect</text>
</g>
<!-- service -->
<g id="node2" class="node">
<title>service</title>
<path fill="#e8f5e0" stroke="#7cb342" stroke-width="1.4" d="M684,-448.12C684,-448.12 491,-448.12 491,-448.12 485,-448.12 479,-442.12 479,-436.12 479,-436.12 479,-397.12 479,-397.12 479,-391.12 485,-385.12 491,-385.12 491,-385.12 684,-385.12 684,-385.12 690,-385.12 696,-391.12 696,-397.12 696,-397.12 696,-436.12 696,-436.12 696,-442.12 690,-448.12 684,-448.12"/>
<text text-anchor="start" x="528" y="-426.43" font-family="Helvetica,sans-Serif" font-weight="bold" font-size="14.00">Target services</text>
<text text-anchor="start" x="496.5" y="-410.82" font-family="Helvetica,sans-Serif" font-size="11.00">Prometheus&#45;compatible endpoint</text>
<text text-anchor="start" x="523.5" y="-398.82" font-family="Helvetica,sans-Serif" font-size="11.00">vLLM · SGLang · Valkey</text>
</g>
<!-- record -->
<g id="node6" class="node">
<title>record</title>
<path fill="#e3f2fd" stroke="#1976d2" stroke-width="1.4" d="M649,-312.12C649,-312.12 526,-312.12 526,-312.12 520,-312.12 514,-306.12 514,-300.12 514,-300.12 514,-273.12 514,-273.12 514,-267.12 520,-261.12 526,-261.12 526,-261.12 649,-261.12 649,-261.12 655,-261.12 661,-267.12 661,-273.12 661,-273.12 661,-300.12 661,-300.12 661,-306.12 655,-312.12 649,-312.12"/>
<text text-anchor="start" x="531.5" y="-290.43" font-family="Helvetica,sans-Serif" font-weight="bold" font-size="14.00">rezolus record</text>
<text text-anchor="start" x="541.5" y="-274.82" font-family="Helvetica,sans-Serif" font-size="11.00">save a recording</text>
</g>
<!-- service&#45;&gt;record -->
<g id="edge9" class="edge">
<title>service&#45;&gt;record</title>
<path fill="none" stroke="#607d8b" stroke-dasharray="5,2" d="M587.5,-384.97C587.5,-366.16 587.5,-342.02 587.5,-322.49"/>
<polygon fill="#607d8b" stroke="#607d8b" points="591,-322.46 587.5,-312.46 584,-322.46 591,-322.46"/>
<text text-anchor="middle" x="608" y="-348.52" font-family="Helvetica,sans-Serif" font-size="12.00">scrape</text>
</g>
<!-- exporter -->
<g id="node4" class="node">
<title>exporter</title>
<path fill="#e3f2fd" stroke="#1976d2" stroke-width="1.4" d="M189,-312.12C189,-312.12 16,-312.12 16,-312.12 10,-312.12 4,-306.12 4,-300.12 4,-300.12 4,-273.12 4,-273.12 4,-267.12 10,-261.12 16,-261.12 16,-261.12 189,-261.12 189,-261.12 195,-261.12 201,-267.12 201,-273.12 201,-273.12 201,-300.12 201,-300.12 201,-306.12 195,-312.12 189,-312.12"/>
<text text-anchor="start" x="38" y="-290.43" font-family="Helvetica,sans-Serif" font-weight="bold" font-size="14.00">rezolus exporter</text>
<text text-anchor="start" x="21.5" y="-274.82" font-family="Helvetica,sans-Serif" font-size="11.00">Prometheus metrics endpoint</text>
</g>
<!-- agent&#45;&gt;exporter -->
<g id="edge10" class="edge">
<title>agent&#45;&gt;exporter</title>
<path fill="none" stroke="#607d8b" d="M292.62,-384.97C252.28,-364.31 199.39,-337.23 159.64,-316.88"/>
<polygon fill="#607d8b" stroke="#607d8b" points="161.1,-313.69 150.6,-312.25 157.91,-319.92 161.1,-313.69"/>
<text text-anchor="middle" x="257" y="-348.52" font-family="Helvetica,sans-Serif" font-size="12.00">expose</text>
</g>
<!-- view -->
<g id="node5" class="node">
<title>view</title>
<path fill="#e3f2fd" stroke="#1976d2" stroke-width="1.4" d="M914,-178.56C914,-178.56 783,-178.56 783,-178.56 777,-178.56 771,-172.56 771,-166.56 771,-166.56 771,-139.56 771,-139.56 771,-133.56 777,-127.56 783,-127.56 783,-127.56 914,-127.56 914,-127.56 920,-127.56 926,-133.56 926,-139.56 926,-139.56 926,-166.56 926,-166.56 926,-172.56 920,-178.56 914,-178.56"/>
<text text-anchor="start" x="800" y="-156.86" font-family="Helvetica,sans-Serif" font-weight="bold" font-size="14.00">rezolus view</text>
<text text-anchor="start" x="788.5" y="-141.26" font-family="Helvetica,sans-Serif" font-size="11.00">interactive dashboard</text>
</g>
<!-- agent&#45;&gt;view -->
<g id="edge11" class="edge">
<title>agent:e&#45;&gt;view:n</title>
<path fill="none" stroke="#607d8b" d="M426.5,-416.62C447.43,-416.62 443.46,-395.72 461.5,-385.12 626.57,-288.16 840.82,-370.91 848.3,-189.08"/>
<polygon fill="#607d8b" stroke="#607d8b" points="851.8,-189.13 848.5,-179.06 844.8,-188.99 851.8,-189.13"/>
<text text-anchor="middle" x="862" y="-283.52" font-family="Helvetica,sans-Serif" font-size="12.00">watch live</text>
</g>
<!-- agent&#45;&gt;record -->
<g id="edge12" class="edge">
<title>agent&#45;&gt;record</title>
<path fill="none" stroke="#607d8b" d="M402.11,-385.11C423.28,-372.39 448.39,-357.67 471.5,-345.12 489.25,-335.49 508.82,-325.53 526.76,-316.67"/>
<polygon fill="#607d8b" stroke="#607d8b" points="528.54,-319.7 535.97,-312.14 525.45,-313.41 528.54,-319.7"/>
<text text-anchor="middle" x="485.5" y="-348.52" font-family="Helvetica,sans-Serif" font-size="12.00">save</text>
</g>
<!-- hindsight -->
<g id="node7" class="node">
<title>hindsight</title>
<path fill="#e3f2fd" stroke="#1976d2" stroke-width="1.4" d="M430,-318.12C430,-318.12 285,-318.12 285,-318.12 279,-318.12 273,-312.12 273,-306.12 273,-306.12 273,-267.12 273,-267.12 273,-261.12 279,-255.12 285,-255.12 285,-255.12 430,-255.12 430,-255.12 436,-255.12 442,-261.12 442,-267.12 442,-267.12 442,-306.12 442,-306.12 442,-312.12 436,-318.12 430,-318.12"/>
<text text-anchor="start" x="290.5" y="-296.43" font-family="Helvetica,sans-Serif" font-weight="bold" font-size="14.00">rezolus hindsight</text>
<text text-anchor="start" x="315.5" y="-280.82" font-family="Helvetica,sans-Serif" font-size="11.00">go back in time</text>
<text text-anchor="start" x="312.5" y="-268.82" font-family="Helvetica,sans-Serif" font-size="11.00">after an incident</text>
</g>
<!-- agent&#45;&gt;hindsight -->
<g id="edge13" class="edge">
<title>agent&#45;&gt;hindsight</title>
<path fill="none" stroke="#607d8b" d="M335.64,-385.04C330.8,-372.76 327.54,-358.39 330.5,-345.12 331.79,-339.33 333.73,-333.43 336,-327.73"/>
<polygon fill="#607d8b" stroke="#607d8b" points="339.29,-328.94 340.04,-318.37 332.86,-326.16 339.29,-328.94"/>
<text text-anchor="middle" x="380.5" y="-348.52" font-family="Helvetica,sans-Serif" font-size="12.00">always&#45;on buffer</text>
</g>
<!-- exporter&#45;&gt;hindsight -->
<!-- grafana -->
<g id="node11" class="node">
<title>grafana</title>
<path fill="#eceff1" stroke="#90a4ae" stroke-width="1.4" d="M193,-171.06C193,-171.06 12,-171.06 12,-171.06 6,-171.06 0,-165.06 0,-159.06 0,-159.06 0,-147.06 0,-147.06 0,-141.06 6,-135.06 12,-135.06 12,-135.06 193,-135.06 193,-135.06 199,-135.06 205,-141.06 205,-147.06 205,-147.06 205,-159.06 205,-159.06 205,-165.06 199,-171.06 193,-171.06"/>
<text text-anchor="start" x="16" y="-150.36" font-family="Helvetica,sans-Serif" font-weight="bold" font-size="14.00">Prometheus / Grafana</text>
</g>
<!-- exporter&#45;&gt;grafana -->
<g id="edge14" class="edge">
<title>exporter&#45;&gt;grafana</title>
<path fill="none" stroke="#607d8b" d="M102.5,-260.88C102.5,-238.26 102.5,-204.86 102.5,-181.45"/>
<polygon fill="#607d8b" stroke="#607d8b" points="106,-181.16 102.5,-171.16 99,-181.16 106,-181.16"/>
<text text-anchor="middle" x="123" y="-218.53" font-family="Helvetica,sans-Serif" font-size="12.00">scrape</text>
</g>
<!-- browser -->
<g id="node12" class="node">
<title>browser</title>
<path fill="#eceff1" stroke="#90a4ae" stroke-width="1.4" d="M911.5,-43.5C911.5,-43.5 785.5,-43.5 785.5,-43.5 779.5,-43.5 773.5,-37.5 773.5,-31.5 773.5,-31.5 773.5,-19.5 773.5,-19.5 773.5,-13.5 779.5,-7.5 785.5,-7.5 785.5,-7.5 911.5,-7.5 911.5,-7.5 917.5,-7.5 923.5,-13.5 923.5,-19.5 923.5,-19.5 923.5,-31.5 923.5,-31.5 923.5,-37.5 917.5,-43.5 911.5,-43.5"/>
<text text-anchor="start" x="789.5" y="-22.8" font-family="Helvetica,sans-Serif" font-weight="bold" font-size="14.00">User&#39;s browser</text>
</g>
<!-- view&#45;&gt;browser -->
<g id="edge20" class="edge">
<title>view&#45;&gt;browser</title>
<path fill="none" stroke="#607d8b" d="M848.5,-117.43C848.5,-97.4 848.5,-72.54 848.5,-53.88"/>
<polygon fill="#607d8b" stroke="#607d8b" points="845,-117.55 848.5,-127.55 852,-117.55 845,-117.55"/>
<polygon fill="#607d8b" stroke="#607d8b" points="852,-53.69 848.5,-43.69 845,-53.69 852,-53.69"/>
</g>
<!-- recording -->
<g id="node10" class="node">
<title>recording</title>
<path fill="#ffe0b2" stroke="#f57c00" stroke-width="1.4" d="M644,-181.8C644,-185.33 618.68,-188.19 587.5,-188.19 556.32,-188.19 531,-185.33 531,-181.8 531,-181.8 531,-124.32 531,-124.32 531,-120.8 556.32,-117.94 587.5,-117.94 618.68,-117.94 644,-120.8 644,-124.32 644,-124.32 644,-181.8 644,-181.8"/>
<path fill="none" stroke="#f57c00" stroke-width="1.4" d="M644,-181.8C644,-178.28 618.68,-175.41 587.5,-175.41 556.32,-175.41 531,-178.28 531,-181.8"/>
<text text-anchor="start" x="548.5" y="-156.86" font-family="Helvetica,sans-Serif" font-weight="bold" font-size="14.00">Recording</text>
<text text-anchor="start" x="554.5" y="-141.26" font-family="Helvetica,sans-Serif" font-size="11.00">.parquet file</text>
</g>
<!-- record&#45;&gt;recording -->
<g id="edge15" class="edge">
<title>record&#45;&gt;recording</title>
<path fill="none" stroke="#607d8b" d="M587.5,-260.88C587.5,-243.3 587.5,-219.22 587.5,-198.37"/>
<polygon fill="#607d8b" stroke="#607d8b" points="591,-198.13 587.5,-188.13 584,-198.13 591,-198.13"/>
</g>
<!-- hindsight&#45;&gt;record -->
<!-- hindsight&#45;&gt;recording -->
<g id="edge16" class="edge">
<title>hindsight&#45;&gt;recording</title>
<path fill="none" stroke="#607d8b" d="M410.77,-255.07C432.4,-242.66 457.64,-228.2 480.5,-215.12 494.41,-207.17 509.35,-198.63 523.52,-190.55"/>
<polygon fill="#607d8b" stroke="#607d8b" points="525.28,-193.57 532.23,-185.58 521.81,-187.49 525.28,-193.57"/>
<text text-anchor="middle" x="529.5" y="-218.53" font-family="Helvetica,sans-Serif" font-size="12.00">dump on trigger</text>
</g>
<!-- mcp -->
<g id="node8" class="node">
<title>mcp</title>
<path fill="#e3f2fd" stroke="#1976d2" stroke-width="1.4" d="M425.5,-51C425.5,-51 315.5,-51 315.5,-51 309.5,-51 303.5,-45 303.5,-39 303.5,-39 303.5,-12 303.5,-12 303.5,-6 309.5,0 315.5,0 315.5,0 425.5,0 425.5,0 431.5,0 437.5,-6 437.5,-12 437.5,-12 437.5,-39 437.5,-39 437.5,-45 431.5,-51 425.5,-51"/>
<text text-anchor="start" x="323.5" y="-29.3" font-family="Helvetica,sans-Serif" font-weight="bold" font-size="14.00">rezolus mcp</text>
<text text-anchor="start" x="320.5" y="-13.7" font-family="Helvetica,sans-Serif" font-size="11.00">AI&#45;guided analysis</text>
</g>
<!-- pqtools -->
<g id="node9" class="node">
<title>pqtools</title>
<path fill="#e3f2fd" stroke="#1976d2" stroke-width="1.4" d="M690,-51C690,-51 521,-51 521,-51 515,-51 509,-45 509,-39 509,-39 509,-12 509,-12 509,-6 515,0 521,0 521,0 690,0 690,0 696,0 702,-6 702,-12 702,-12 702,-39 702,-39 702,-45 696,-51 690,-51"/>
<text text-anchor="start" x="544" y="-29.3" font-family="Helvetica,sans-Serif" font-weight="bold" font-size="14.00">rezolus parquet</text>
<text text-anchor="start" x="526.5" y="-13.7" font-family="Helvetica,sans-Serif" font-size="11.00">inspect · annotate · combine</text>
</g>
<!-- mcp&#45;&gt;pqtools -->
<!-- pqtools&#45;&gt;browser -->
<!-- recording&#45;&gt;view -->
<!-- recording&#45;&gt;view -->
<g id="edge17" class="edge">
<title>recording&#45;&gt;view</title>
<path fill="none" stroke="#8d6e63" d="M644.13,-153.06C678.13,-153.06 722.09,-153.06 760.53,-153.06"/>
<polygon fill="#8d6e63" stroke="#8d6e63" points="760.69,-156.56 770.69,-153.06 760.69,-149.56 760.69,-156.56"/>
<text text-anchor="middle" x="707.5" y="-159.46" font-family="Helvetica,sans-Serif" font-size="12.00">open recording</text>
</g>
<!-- recording&#45;&gt;mcp -->
<g id="edge18" class="edge">
<title>recording&#45;&gt;mcp</title>
<path fill="none" stroke="#8d6e63" d="M533.02,-120.54C498.91,-100.8 455.23,-75.53 421.75,-56.15"/>
<polygon fill="#8d6e63" stroke="#8d6e63" points="423.44,-53.09 413.03,-51.11 419.93,-59.15 423.44,-53.09"/>
<text text-anchor="middle" x="501.5" y="-81.4" font-family="Helvetica,sans-Serif" font-size="12.00">analyze</text>
</g>
<!-- recording&#45;&gt;pqtools -->
<g id="edge19" class="edge">
<title>recording&#45;&gt;pqtools</title>
<path fill="none" stroke="#8d6e63" d="M592.42,-117.75C594.94,-100.15 598.01,-78.76 600.54,-61.11"/>
<polygon fill="#8d6e63" stroke="#8d6e63" points="604,-61.61 601.96,-51.21 597.07,-60.62 604,-61.61"/>
<text text-anchor="middle" x="622.5" y="-81.4" font-family="Helvetica,sans-Serif" font-size="12.00">manage</text>
</g>
<!-- grafana&#45;&gt;recording -->
<!-- llm -->
<g id="node13" class="node">
<title>llm</title>
<path fill="#eceff1" stroke="#90a4ae" stroke-width="1.4" d="M220,-43.5C220,-43.5 119,-43.5 119,-43.5 113,-43.5 107,-37.5 107,-31.5 107,-31.5 107,-19.5 107,-19.5 107,-13.5 113,-7.5 119,-7.5 119,-7.5 220,-7.5 220,-7.5 226,-7.5 232,-13.5 232,-19.5 232,-19.5 232,-31.5 232,-31.5 232,-37.5 226,-43.5 220,-43.5"/>
<text text-anchor="start" x="123" y="-22.8" font-family="Helvetica,sans-Serif" font-weight="bold" font-size="14.00">AI assistant</text>
</g>
<!-- llm&#45;&gt;mcp -->
<!-- llm&#45;&gt;mcp -->
<g id="edge21" class="edge">
<title>llm&#45;&gt;mcp</title>
<path fill="none" stroke="#607d8b" d="M242.5,-25.5C258.96,-25.5 276.48,-25.5 293.11,-25.5"/>
<polygon fill="#607d8b" stroke="#607d8b" points="242.27,-22 232.27,-25.5 242.27,-29 242.27,-22"/>
<polygon fill="#607d8b" stroke="#607d8b" points="293.33,-29 303.33,-25.5 293.33,-22 293.33,-29"/>
<text text-anchor="middle" x="267.75" y="-31.9" font-family="Helvetica,sans-Serif" font-size="12.00">ask</text>
</g>
</g>
</svg>
