<?xml version="1.0" encoding="UTF-8" standalone="no"?>
<!DOCTYPE svg PUBLIC "-//W3C//DTD SVG 1.1//EN"
 "http://www.w3.org/Graphics/SVG/1.1/DTD/svg11.dtd">
<!-- Generated by graphviz version 2.43.0 (0)
 -->
<!-- Title: rezolus Pages: 1 -->
<svg width="896pt" height="598pt"
 viewBox="0.00 0.00 896.00 598.12" xmlns="http://www.w3.org/2000/svg" xmlns:xlink="http://www.w3.org/1999/xlink">
<g id="graph0" class="graph" transform="scale(1 1) rotate(0) translate(4 594.12)">
<title>rezolus</title>
<polygon fill="white" stroke="transparent" points="-4,4 -4,-594.12 892,-594.12 892,4 -4,4"/>
<!-- system -->
<g id="node1" class="node">
<title>system</title>
<path fill="#e8f5e0" stroke="#7cb342" stroke-width="1.4" d="M509,-590.12C509,-590.12 332,-590.12 332,-590.12 326,-590.12 320,-584.12 320,-578.12 320,-578.12 320,-527.12 320,-527.12 320,-521.12 326,-515.12 332,-515.12 332,-515.12 509,-515.12 509,-515.12 515,-515.12 521,-521.12 521,-527.12 521,-527.12 521,-578.12 521,-578.12 521,-584.12 515,-590.12 509,-590.12"/>
<text text-anchor="start" x="361" y="-568.42" font-family="Helvetica,sans-Serif" font-weight="bold" font-size="14.00">Target systems</text>
<text text-anchor="start" x="337.5" y="-552.83" font-family="Helvetica,sans-Serif" font-size="11.00">CPU · GPU · kernel · scheduler</text>
<text text-anchor="start" x="341.5" y="-540.83" font-family="Helvetica,sans-Serif" font-size="11.00">syscalls · block I/O · network</text>
<text text-anchor="start" x="363.5" y="-528.83" font-family="Helvetica,sans-Serif" font-size="11.00">containers · services</text>
</g>
<!-- agent -->
<g id="node2" class="node">
<title>agent</title>
<path fill="#f8bbd0" stroke="#c2185b" stroke-width="1.8" d="M481.5,-448.12C481.5,-448.12 359.5,-448.12 359.5,-448.12 353.5,-448.12 347.5,-442.12 347.5,-436.12 347.5,-436.12 347.5,-397.12 347.5,-397.12 347.5,-391.12 353.5,-385.12 359.5,-385.12 359.5,-385.12 481.5,-385.12 481.5,-385.12 487.5,-385.12 493.5,-391.12 493.5,-397.12 493.5,-397.12 493.5,-436.12 493.5,-436.12 493.5,-442.12 487.5,-448.12 481.5,-448.12"/>
<text text-anchor="start" x="366.5" y="-426.43" font-family="Helvetica,sans-Serif" font-weight="bold" font-size="14.00">rezolus agent</text>
<text text-anchor="start" x="366.5" y="-410.82" font-family="Helvetica,sans-Serif" font-size="11.00">always&#45;on collector</text>
<text text-anchor="start" x="364.5" y="-398.82" font-family="Helvetica,sans-Serif" font-size="11.00">root · in&#45;kernel eBPF</text>
</g>
<!-- system&#45;&gt;agent -->
<g id="edge8" class="edge">
<title>system&#45;&gt;agent</title>
<path fill="none" stroke="#607d8b" d="M420.5,-515.01C420.5,-497.52 420.5,-476.52 420.5,-458.51"/>
<polygon fill="#607d8b" stroke="#607d8b" points="424,-458.3 420.5,-448.3 417,-458.3 424,-458.3"/>
<text text-anchor="middle" x="440.5" y="-478.52" font-family="Helvetica,sans-Serif" font-size="12.00">collect</text>
</g>
<!-- exporter -->
<g id="node3" class="node">
<title>exporter</title>
<path fill="#e3f2fd" stroke="#1976d2" stroke-width="1.4" d="M189,-312.12C189,-312.12 16,-312.12 16,-312.12 10,-312.12 4,-306.12 4,-300.12 4,-300.12 4,-273.12 4,-273.12 4,-267.12 10,-261.12 16,-261.12 16,-261.12 189,-261.12 189,-261.12 195,-261.12 201,-267.12 201,-273.12 201,-273.12 201,-300.12 201,-300.12 201,-306.12 195,-312.12 189,-312.12"/>
<text text-anchor="start" x="38" y="-290.43" font-family="Helvetica,sans-Serif" font-weight="bold" font-size="14.00">rezolus exporter</text>
<text text-anchor="start" x="21.5" y="-274.82" font-family="Helvetica,sans-Serif" font-size="11.00">Prometheus metrics endpoint</text>
</g>
<!-- agent&#45;&gt;exporter -->
<g id="edge9" class="edge">
<title>agent&#45;&gt;exporter</title>
<path fill="none" stroke="#607d8b" d="M347.15,-386.1C294.74,-365 224.64,-336.79 172.91,-315.97"/>
<polygon fill="#607d8b" stroke="#607d8b" points="174.06,-312.65 163.47,-312.17 171.44,-319.15 174.06,-312.65"/>
<text text-anchor="middle" x="293" y="-348.52" font-family="Helvetica,sans-Serif" font-size="12.00">expose</text>
</g>
<!-- view -->
<g id="node4" class="node">
<title>view</title>
<path fill="#e3f2fd" stroke="#1976d2" stroke-width="1.4" d="M876,-312.12C876,-312.12 745,-312.12 745,-312.12 739,-312.12 733,-306.12 733,-300.12 733,-300.12 733,-273.12 733,-273.12 733,-267.12 739,-261.12 745,-261.12 745,-261.12 876,-261.12 876,-261.12 882,-261.12 888,-267.12 888,-273.12 888,-273.12 888,-300.12 888,-300.12 888,-306.12 882,-312.12 876,-312.12"/>
<text text-anchor="start" x="762" y="-290.43" font-family="Helvetica,sans-Serif" font-weight="bold" font-size="14.00">rezolus view</text>
<text text-anchor="start" x="750.5" y="-274.82" font-family="Helvetica,sans-Serif" font-size="11.00">interactive dashboard</text>
</g>
<!-- agent&#45;&gt;view -->
<g id="edge10" class="edge">
<title>agent&#45;&gt;view</title>
<path fill="none" stroke="#607d8b" d="M493.71,-394.65C529.64,-384.12 573.48,-370.91 612.5,-358.12 653.09,-344.83 697.95,-328.96 734.69,-315.64"/>
<polygon fill="#607d8b" stroke="#607d8b" points="736.14,-318.84 744.34,-312.14 733.74,-312.26 736.14,-318.84"/>
<text text-anchor="middle" x="681" y="-348.52" font-family="Helvetica,sans-Serif" font-size="12.00">watch live</text>
</g>
<!-- record -->
<g id="node5" class="node">
<title>record</title>
<path fill="#e3f2fd" stroke="#1976d2" stroke-width="1.4" d="M408,-312.12C408,-312.12 285,-312.12 285,-312.12 279,-312.12 273,-306.12 273,-300.12 273,-300.12 273,-273.12 273,-273.12 273,-267.12 279,-261.12 285,-261.12 285,-261.12 408,-261.12 408,-261.12 414,-261.12 420,-267.12 420,-273.12 420,-273.12 420,-300.12 420,-300.12 420,-306.12 414,-312.12 408,-312.12"/>
<text text-anchor="start" x="290.5" y="-290.43" font-family="Helvetica,sans-Serif" font-weight="bold" font-size="14.00">rezolus record</text>
<text text-anchor="start" x="300.5" y="-274.82" font-family="Helvetica,sans-Serif" font-size="11.00">save a recording</text>
</g>
<!-- agent&#45;&gt;record -->
<g id="edge11" class="edge">
<title>agent&#45;&gt;record</title>
<path fill="none" stroke="#607d8b" d="M402.78,-384.97C391.65,-365.72 377.3,-340.91 365.88,-321.14"/>
<polygon fill="#607d8b" stroke="#607d8b" points="368.89,-319.36 360.86,-312.46 362.83,-322.87 368.89,-319.36"/>
<text text-anchor="middle" x="400.5" y="-348.52" font-family="Helvetica,sans-Serif" font-size="12.00">save</text>
</g>
<!-- hindsight -->
<g id="node6" class="node">
<title>hindsight</title>
<path fill="#e3f2fd" stroke="#1976d2" stroke-width="1.4" d="M649,-318.12C649,-318.12 504,-318.12 504,-318.12 498,-318.12 492,-312.12 492,-306.12 492,-306.12 492,-267.12 492,-267.12 492,-261.12 498,-255.12 504,-255.12 504,-255.12 649,-255.12 649,-255.12 655,-255.12 661,-261.12 661,-267.12 661,-267.12 661,-306.12 661,-306.12 661,-312.12 655,-318.12 649,-318.12"/>
<text text-anchor="start" x="509.5" y="-296.43" font-family="Helvetica,sans-Serif" font-weight="bold" font-size="14.00">rezolus hindsight</text>
<text text-anchor="start" x="534.5" y="-280.82" font-family="Helvetica,sans-Serif" font-size="11.00">go back in time</text>
<text text-anchor="start" x="531.5" y="-268.82" font-family="Helvetica,sans-Serif" font-size="11.00">after an incident</text>
</g>
<!-- agent&#45;&gt;hindsight -->
<g id="edge12" class="edge">
<title>agent&#45;&gt;hindsight</title>
<path fill="none" stroke="#607d8b" d="M457.87,-384.97C479.88,-366.9 507.88,-343.93 531.15,-324.83"/>
<polygon fill="#607d8b" stroke="#607d8b" points="533.66,-327.3 539.17,-318.26 529.22,-321.89 533.66,-327.3"/>
<text text-anchor="middle" x="553.5" y="-348.52" font-family="Helvetica,sans-Serif" font-size="12.00">always&#45;on buffer</text>
</g>
<!-- exporter&#45;&gt;record -->
<!-- grafana -->
<g id="node10" class="node">
<title>grafana</title>
<path fill="#eceff1" stroke="#90a4ae" stroke-width="1.4" d="M193,-171.06C193,-171.06 12,-171.06 12,-171.06 6,-171.06 0,-165.06 0,-159.06 0,-159.06 0,-147.06 0,-147.06 0,-141.06 6,-135.06 12,-135.06 12,-135.06 193,-135.06 193,-135.06 199,-135.06 205,-141.06 205,-147.06 205,-147.06 205,-159.06 205,-159.06 205,-165.06 199,-171.06 193,-171.06"/>
<text text-anchor="start" x="16" y="-150.36" font-family="Helvetica,sans-Serif" font-weight="bold" font-size="14.00">Prometheus / Grafana</text>
</g>
<!-- exporter&#45;&gt;grafana -->
<g id="edge13" class="edge">
<title>exporter&#45;&gt;grafana</title>
<path fill="none" stroke="#607d8b" d="M102.5,-260.88C102.5,-238.26 102.5,-204.86 102.5,-181.45"/>
<polygon fill="#607d8b" stroke="#607d8b" points="106,-181.16 102.5,-171.16 99,-181.16 106,-181.16"/>
<text text-anchor="middle" x="123" y="-218.53" font-family="Helvetica,sans-Serif" font-size="12.00">scrape</text>
</g>
<!-- browser -->
<g id="node11" class="node">
<title>browser</title>
<path fill="#eceff1" stroke="#90a4ae" stroke-width="1.4" d="M873.5,-171.06C873.5,-171.06 747.5,-171.06 747.5,-171.06 741.5,-171.06 735.5,-165.06 735.5,-159.06 735.5,-159.06 735.5,-147.06 735.5,-147.06 735.5,-141.06 741.5,-135.06 747.5,-135.06 747.5,-135.06 873.5,-135.06 873.5,-135.06 879.5,-135.06 885.5,-141.06 885.5,-147.06 885.5,-147.06 885.5,-159.06 885.5,-159.06 885.5,-165.06 879.5,-171.06 873.5,-171.06"/>
<text text-anchor="start" x="751.5" y="-150.36" font-family="Helvetica,sans-Serif" font-weight="bold" font-size="14.00">User&#39;s browser</text>
</g>
<!-- view&#45;&gt;browser -->
<g id="edge19" class="edge">
<title>view&#45;&gt;browser</title>
<path fill="none" stroke="#607d8b" d="M810.5,-250.78C810.5,-229.01 810.5,-201.37 810.5,-181.22"/>
<polygon fill="#607d8b" stroke="#607d8b" points="807,-250.88 810.5,-260.88 814,-250.88 807,-250.88"/>
<polygon fill="#607d8b" stroke="#607d8b" points="814,-181.16 810.5,-171.16 807,-181.16 814,-181.16"/>
</g>
<!-- record&#45;&gt;hindsight -->
<!-- recording -->
<g id="node9" class="node">
<title>recording</title>
<path fill="#ffe0b2" stroke="#f57c00" stroke-width="1.4" d="M633,-181.8C633,-185.33 607.68,-188.19 576.5,-188.19 545.32,-188.19 520,-185.33 520,-181.8 520,-181.8 520,-124.32 520,-124.32 520,-120.8 545.32,-117.94 576.5,-117.94 607.68,-117.94 633,-120.8 633,-124.32 633,-124.32 633,-181.8 633,-181.8"/>
<path fill="none" stroke="#f57c00" stroke-width="1.4" d="M633,-181.8C633,-178.28 607.68,-175.41 576.5,-175.41 545.32,-175.41 520,-178.28 520,-181.8"/>
<text text-anchor="start" x="537.5" y="-156.86" font-family="Helvetica,sans-Serif" font-weight="bold" font-size="14.00">Recording</text>
<text text-anchor="start" x="543.5" y="-141.26" font-family="Helvetica,sans-Serif" font-size="11.00">.parquet file</text>
</g>
<!-- record&#45;&gt;recording -->
<g id="edge14" class="edge">
<title>record&#45;&gt;recording</title>
<path fill="none" stroke="#607d8b" d="M369.65,-261.05C384.54,-246.28 404.9,-227.94 425.5,-215.12 451.7,-198.83 483.01,-185.33 510.3,-175.2"/>
<polygon fill="#607d8b" stroke="#607d8b" points="511.57,-178.46 519.77,-171.76 509.18,-171.89 511.57,-178.46"/>
</g>
<!-- hindsight&#45;&gt;view -->
<!-- hindsight&#45;&gt;recording -->
<g id="edge15" class="edge">
<title>hindsight&#45;&gt;recording</title>
<path fill="none" stroke="#607d8b" d="M576.5,-255.11C576.5,-238.33 576.5,-217.2 576.5,-198.61"/>
<polygon fill="#607d8b" stroke="#607d8b" points="580,-198.59 576.5,-188.59 573,-198.59 580,-198.59"/>
<text text-anchor="middle" x="625.5" y="-218.53" font-family="Helvetica,sans-Serif" font-size="12.00">dump on trigger</text>
</g>
<!-- mcp -->
<g id="node7" class="node">
<title>mcp</title>
<path fill="#e3f2fd" stroke="#1976d2" stroke-width="1.4" d="M495.5,-51C495.5,-51 385.5,-51 385.5,-51 379.5,-51 373.5,-45 373.5,-39 373.5,-39 373.5,-12 373.5,-12 373.5,-6 379.5,0 385.5,0 385.5,0 495.5,0 495.5,0 501.5,0 507.5,-6 507.5,-12 507.5,-12 507.5,-39 507.5,-39 507.5,-45 501.5,-51 495.5,-51"/>
<text text-anchor="start" x="393.5" y="-29.3" font-family="Helvetica,sans-Serif" font-weight="bold" font-size="14.00">rezolus mcp</text>
<text text-anchor="start" x="390.5" y="-13.7" font-family="Helvetica,sans-Serif" font-size="11.00">AI&#45;guided analysis</text>
</g>
<!-- pqtools -->
<g id="node8" class="node">
<title>pqtools</title>
<path fill="#e3f2fd" stroke="#1976d2" stroke-width="1.4" d="M760,-51C760,-51 591,-51 591,-51 585,-51 579,-45 579,-39 579,-39 579,-12 579,-12 579,-6 585,0 591,0 591,0 760,0 760,0 766,0 772,-6 772,-12 772,-12 772,-39 772,-39 772,-45 766,-51 760,-51"/>
<text text-anchor="start" x="614" y="-29.3" font-family="Helvetica,sans-Serif" font-weight="bold" font-size="14.00">rezolus parquet</text>
<text text-anchor="start" x="596.5" y="-13.7" font-family="Helvetica,sans-Serif" font-size="11.00">inspect · annotate · combine</text>
</g>
<!-- mcp&#45;&gt;pqtools -->
<!-- recording&#45;&gt;view -->
<g id="edge16" class="edge">
<title>recording&#45;&gt;view</title>
<path fill="none" stroke="#8d6e63" d="M562.34,-188.33C559.07,-201.98 558.74,-217.05 567.5,-228.12 568.14,-228.93 653.44,-249 722.79,-265.2"/>
<polygon fill="#8d6e63" stroke="#8d6e63" points="722.36,-268.69 732.9,-267.56 723.96,-261.87 722.36,-268.69"/>
<text text-anchor="middle" x="573.87" y="-244.29" font-family="Helvetica,sans-Serif" font-size="12.00">open recording</text>
</g>
<!-- recording&#45;&gt;mcp -->
<g id="edge17" class="edge">
<title>recording&#45;&gt;mcp</title>
<path fill="none" stroke="#8d6e63" d="M540.05,-118.41C519.68,-99.61 494.45,-76.31 474.49,-57.88"/>
<polygon fill="#8d6e63" stroke="#8d6e63" points="476.84,-55.29 467.12,-51.08 472.09,-60.43 476.84,-55.29"/>
<text text-anchor="middle" x="531.5" y="-81.4" font-family="Helvetica,sans-Serif" font-size="12.00">analyze</text>
</g>
<!-- recording&#45;&gt;pqtools -->
<g id="edge18" class="edge">
<title>recording&#45;&gt;pqtools</title>
<path fill="none" stroke="#8d6e63" d="M603.55,-117.75C617.95,-99.49 635.56,-77.15 649.76,-59.15"/>
<polygon fill="#8d6e63" stroke="#8d6e63" points="652.57,-61.23 656.01,-51.21 647.07,-56.9 652.57,-61.23"/>
<text text-anchor="middle" x="659.5" y="-81.4" font-family="Helvetica,sans-Serif" font-size="12.00">manage</text>
</g>
<!-- recording&#45;&gt;browser -->
<!-- grafana&#45;&gt;recording -->
<!-- llm -->
<g id="node12" class="node">
<title>llm</title>
<path fill="#eceff1" stroke="#90a4ae" stroke-width="1.4" d="M290,-43.5C290,-43.5 189,-43.5 189,-43.5 183,-43.5 177,-37.5 177,-31.5 177,-31.5 177,-19.5 177,-19.5 177,-13.5 183,-7.5 189,-7.5 189,-7.5 290,-7.5 290,-7.5 296,-7.5 302,-13.5 302,-19.5 302,-19.5 302,-31.5 302,-31.5 302,-37.5 296,-43.5 290,-43.5"/>
<text text-anchor="start" x="193" y="-22.8" font-family="Helvetica,sans-Serif" font-weight="bold" font-size="14.00">AI assistant</text>
</g>
<!-- llm&#45;&gt;mcp -->
<!-- llm&#45;&gt;mcp -->
<g id="edge20" class="edge">
<title>llm&#45;&gt;mcp</title>
<path fill="none" stroke="#607d8b" d="M312.5,-25.5C328.96,-25.5 346.48,-25.5 363.11,-25.5"/>
<polygon fill="#607d8b" stroke="#607d8b" points="312.27,-22 302.27,-25.5 312.27,-29 312.27,-22"/>
<polygon fill="#607d8b" stroke="#607d8b" points="363.33,-29 373.33,-25.5 363.33,-22 363.33,-29"/>
<text text-anchor="middle" x="337.75" y="-31.9" font-family="Helvetica,sans-Serif" font-size="12.00">ask</text>
</g>
</g>
</svg>
