<?xml version="1.0" encoding="UTF-8" standalone="no"?>
<!DOCTYPE svg PUBLIC "-//W3C//DTD SVG 1.1//EN"
 "http://www.w3.org/Graphics/SVG/1.1/DTD/svg11.dtd">
<!-- Generated by graphviz version 2.43.0 (0)
 -->
<!-- Title: rezolus Pages: 1 -->
<svg width="923pt" height="598pt"
 viewBox="0.00 0.00 923.00 598.12" xmlns="http://www.w3.org/2000/svg" xmlns:xlink="http://www.w3.org/1999/xlink">
<g id="graph0" class="graph" transform="scale(1 1) rotate(0) translate(4 594.12)">
<title>rezolus</title>
<polygon fill="white" stroke="transparent" points="-4,4 -4,-594.12 919,-594.12 919,4 -4,4"/>
<!-- system -->
<g id="node1" class="node">
<title>system</title>
<path fill="#e8f5e0" stroke="#7cb342" stroke-width="1.4" d="M579,-590.12C579,-590.12 402,-590.12 402,-590.12 396,-590.12 390,-584.12 390,-578.12 390,-578.12 390,-527.12 390,-527.12 390,-521.12 396,-515.12 402,-515.12 402,-515.12 579,-515.12 579,-515.12 585,-515.12 591,-521.12 591,-527.12 591,-527.12 591,-578.12 591,-578.12 591,-584.12 585,-590.12 579,-590.12"/>
<text text-anchor="start" x="431" y="-568.42" font-family="Helvetica,sans-Serif" font-weight="bold" font-size="14.00">Target systems</text>
<text text-anchor="start" x="407.5" y="-552.83" font-family="Helvetica,sans-Serif" font-size="11.00">CPU · GPU · kernel · scheduler</text>
<text text-anchor="start" x="411.5" y="-540.83" font-family="Helvetica,sans-Serif" font-size="11.00">syscalls · block I/O · network</text>
<text text-anchor="start" x="433.5" y="-528.83" font-family="Helvetica,sans-Serif" font-size="11.00">containers · services</text>
</g>
<!-- agent -->
<g id="node2" class="node">
<title>agent</title>
<path fill="#f8bbd0" stroke="#c2185b" stroke-width="1.8" d="M551.5,-448.12C551.5,-448.12 429.5,-448.12 429.5,-448.12 423.5,-448.12 417.5,-442.12 417.5,-436.12 417.5,-436.12 417.5,-397.12 417.5,-397.12 417.5,-391.12 423.5,-385.12 429.5,-385.12 429.5,-385.12 551.5,-385.12 551.5,-385.12 557.5,-385.12 563.5,-391.12 563.5,-397.12 563.5,-397.12 563.5,-436.12 563.5,-436.12 563.5,-442.12 557.5,-448.12 551.5,-448.12"/>
<text text-anchor="start" x="436.5" y="-426.43" font-family="Helvetica,sans-Serif" font-weight="bold" font-size="14.00">rezolus agent</text>
<text text-anchor="start" x="436.5" y="-410.82" font-family="Helvetica,sans-Serif" font-size="11.00">always&#45;on collector</text>
<text text-anchor="start" x="434.5" y="-398.82" font-family="Helvetica,sans-Serif" font-size="11.00">root · in&#45;kernel eBPF</text>
</g>
<!-- system&#45;&gt;agent -->
<g id="edge8" class="edge">
<title>system&#45;&gt;agent</title>
<path fill="none" stroke="#607d8b" d="M490.5,-515.01C490.5,-497.52 490.5,-476.52 490.5,-458.51"/>
<polygon fill="#607d8b" stroke="#607d8b" points="494,-458.3 490.5,-448.3 487,-458.3 494,-458.3"/>
<text text-anchor="middle" x="510.5" y="-478.52" font-family="Helvetica,sans-Serif" font-size="12.00">collect</text>
</g>
<!-- exporter -->
<g id="node3" class="node">
<title>exporter</title>
<path fill="#e3f2fd" stroke="#1976d2" stroke-width="1.4" d="M189,-312.12C189,-312.12 16,-312.12 16,-312.12 10,-312.12 4,-306.12 4,-300.12 4,-300.12 4,-273.12 4,-273.12 4,-267.12 10,-261.12 16,-261.12 16,-261.12 189,-261.12 189,-261.12 195,-261.12 201,-267.12 201,-273.12 201,-273.12 201,-300.12 201,-300.12 201,-306.12 195,-312.12 189,-312.12"/>
<text text-anchor="start" x="38" y="-290.43" font-family="Helvetica,sans-Serif" font-weight="bold" font-size="14.00">rezolus exporter</text>
<text text-anchor="start" x="21.5" y="-274.82" font-family="Helvetica,sans-Serif" font-size="11.00">Prometheus metrics endpoint</text>
</g>
<!-- agent&#45;&gt;exporter -->
<g id="edge9" class="edge">
<title>agent&#45;&gt;exporter</title>
<path fill="none" stroke="#607d8b" d="M417.06,-391.4C351.39,-369.73 255.17,-337.99 186.46,-315.32"/>
<polygon fill="#607d8b" stroke="#607d8b" points="187.55,-312 176.96,-312.19 185.36,-318.64 187.55,-312"/>
<text text-anchor="middle" x="330" y="-348.52" font-family="Helvetica,sans-Serif" font-size="12.00">expose</text>
</g>
<!-- view -->
<g id="node4" class="node">
<title>view</title>
<path fill="#e3f2fd" stroke="#1976d2" stroke-width="1.4" d="M903,-178.56C903,-178.56 772,-178.56 772,-178.56 766,-178.56 760,-172.56 760,-166.56 760,-166.56 760,-139.56 760,-139.56 760,-133.56 766,-127.56 772,-127.56 772,-127.56 903,-127.56 903,-127.56 909,-127.56 915,-133.56 915,-139.56 915,-139.56 915,-166.56 915,-166.56 915,-172.56 909,-178.56 903,-178.56"/>
<text text-anchor="start" x="789" y="-156.86" font-family="Helvetica,sans-Serif" font-weight="bold" font-size="14.00">rezolus view</text>
<text text-anchor="start" x="777.5" y="-141.26" font-family="Helvetica,sans-Serif" font-size="11.00">interactive dashboard</text>
</g>
<!-- agent&#45;&gt;view -->
<g id="edge10" class="edge">
<title>agent&#45;&gt;view</title>
<path fill="none" stroke="#607d8b" d="M563.52,-395.96C590.28,-386.84 620,-374.36 644.5,-358.12 716.29,-310.55 780.89,-231.49 814.04,-187.03"/>
<polygon fill="#607d8b" stroke="#607d8b" points="816.93,-189.01 820.06,-178.89 811.3,-184.85 816.93,-189.01"/>
<text text-anchor="middle" x="787" y="-283.52" font-family="Helvetica,sans-Serif" font-size="12.00">watch live</text>
</g>
<!-- record -->
<g id="node5" class="node">
<title>record</title>
<path fill="#e3f2fd" stroke="#1976d2" stroke-width="1.4" d="M408,-312.12C408,-312.12 285,-312.12 285,-312.12 279,-312.12 273,-306.12 273,-300.12 273,-300.12 273,-273.12 273,-273.12 273,-267.12 279,-261.12 285,-261.12 285,-261.12 408,-261.12 408,-261.12 414,-261.12 420,-267.12 420,-273.12 420,-273.12 420,-300.12 420,-300.12 420,-306.12 414,-312.12 408,-312.12"/>
<text text-anchor="start" x="290.5" y="-290.43" font-family="Helvetica,sans-Serif" font-weight="bold" font-size="14.00">rezolus record</text>
<text text-anchor="start" x="300.5" y="-274.82" font-family="Helvetica,sans-Serif" font-size="11.00">save a recording</text>
</g>
<!-- agent&#45;&gt;record -->
<g id="edge11" class="edge">
<title>agent&#45;&gt;record</title>
<path fill="none" stroke="#607d8b" d="M456.01,-384.97C433.68,-365.12 404.67,-339.33 382.12,-319.29"/>
<polygon fill="#607d8b" stroke="#607d8b" points="384.24,-316.49 374.44,-312.46 379.59,-321.72 384.24,-316.49"/>
<text text-anchor="middle" x="437.5" y="-348.52" font-family="Helvetica,sans-Serif" font-size="12.00">save</text>
</g>
<!-- hindsight -->
<g id="node6" class="node">
<title>hindsight</title>
<path fill="#e3f2fd" stroke="#1976d2" stroke-width="1.4" d="M649,-318.12C649,-318.12 504,-318.12 504,-318.12 498,-318.12 492,-312.12 492,-306.12 492,-306.12 492,-267.12 492,-267.12 492,-261.12 498,-255.12 504,-255.12 504,-255.12 649,-255.12 649,-255.12 655,-255.12 661,-261.12 661,-267.12 661,-267.12 661,-306.12 661,-306.12 661,-312.12 655,-318.12 649,-318.12"/>
<text text-anchor="start" x="509.5" y="-296.43" font-family="Helvetica,sans-Serif" font-weight="bold" font-size="14.00">rezolus hindsight</text>
<text text-anchor="start" x="534.5" y="-280.82" font-family="Helvetica,sans-Serif" font-size="11.00">go back in time</text>
<text text-anchor="start" x="531.5" y="-268.82" font-family="Helvetica,sans-Serif" font-size="11.00">after an incident</text>
</g>
<!-- agent&#45;&gt;hindsight -->
<g id="edge12" class="edge">
<title>agent&#45;&gt;hindsight</title>
<path fill="none" stroke="#607d8b" d="M511.1,-384.97C522.82,-367.52 537.62,-345.49 550.18,-326.8"/>
<polygon fill="#607d8b" stroke="#607d8b" points="553.1,-328.73 555.77,-318.48 547.29,-324.83 553.1,-328.73"/>
<text text-anchor="middle" x="585.5" y="-348.52" font-family="Helvetica,sans-Serif" font-size="12.00">always&#45;on buffer</text>
</g>
<!-- exporter&#45;&gt;record -->
<!-- grafana -->
<g id="node10" class="node">
<title>grafana</title>
<path fill="#eceff1" stroke="#90a4ae" stroke-width="1.4" d="M193,-171.06C193,-171.06 12,-171.06 12,-171.06 6,-171.06 0,-165.06 0,-159.06 0,-159.06 0,-147.06 0,-147.06 0,-141.06 6,-135.06 12,-135.06 12,-135.06 193,-135.06 193,-135.06 199,-135.06 205,-141.06 205,-147.06 205,-147.06 205,-159.06 205,-159.06 205,-165.06 199,-171.06 193,-171.06"/>
<text text-anchor="start" x="16" y="-150.36" font-family="Helvetica,sans-Serif" font-weight="bold" font-size="14.00">Prometheus / Grafana</text>
</g>
<!-- exporter&#45;&gt;grafana -->
<g id="edge13" class="edge">
<title>exporter&#45;&gt;grafana</title>
<path fill="none" stroke="#607d8b" d="M102.5,-260.88C102.5,-238.26 102.5,-204.86 102.5,-181.45"/>
<polygon fill="#607d8b" stroke="#607d8b" points="106,-181.16 102.5,-171.16 99,-181.16 106,-181.16"/>
<text text-anchor="middle" x="123" y="-218.53" font-family="Helvetica,sans-Serif" font-size="12.00">scrape</text>
</g>
<!-- browser -->
<g id="node11" class="node">
<title>browser</title>
<path fill="#eceff1" stroke="#90a4ae" stroke-width="1.4" d="M900.5,-43.5C900.5,-43.5 774.5,-43.5 774.5,-43.5 768.5,-43.5 762.5,-37.5 762.5,-31.5 762.5,-31.5 762.5,-19.5 762.5,-19.5 762.5,-13.5 768.5,-7.5 774.5,-7.5 774.5,-7.5 900.5,-7.5 900.5,-7.5 906.5,-7.5 912.5,-13.5 912.5,-19.5 912.5,-19.5 912.5,-31.5 912.5,-31.5 912.5,-37.5 906.5,-43.5 900.5,-43.5"/>
<text text-anchor="start" x="778.5" y="-22.8" font-family="Helvetica,sans-Serif" font-weight="bold" font-size="14.00">User&#39;s browser</text>
</g>
<!-- view&#45;&gt;browser -->
<g id="edge19" class="edge">
<title>view&#45;&gt;browser</title>
<path fill="none" stroke="#607d8b" d="M837.5,-117.43C837.5,-97.4 837.5,-72.54 837.5,-53.88"/>
<polygon fill="#607d8b" stroke="#607d8b" points="834,-117.55 837.5,-127.55 841,-117.55 834,-117.55"/>
<polygon fill="#607d8b" stroke="#607d8b" points="841,-53.69 837.5,-43.69 834,-53.69 841,-53.69"/>
</g>
<!-- record&#45;&gt;hindsight -->
<!-- recording -->
<g id="node9" class="node">
<title>recording</title>
<path fill="#ffe0b2" stroke="#f57c00" stroke-width="1.4" d="M633,-181.8C633,-185.33 607.68,-188.19 576.5,-188.19 545.32,-188.19 520,-185.33 520,-181.8 520,-181.8 520,-124.32 520,-124.32 520,-120.8 545.32,-117.94 576.5,-117.94 607.68,-117.94 633,-120.8 633,-124.32 633,-124.32 633,-181.8 633,-181.8"/>
<path fill="none" stroke="#f57c00" stroke-width="1.4" d="M633,-181.8C633,-178.28 607.68,-175.41 576.5,-175.41 545.32,-175.41 520,-178.28 520,-181.8"/>
<text text-anchor="start" x="537.5" y="-156.86" font-family="Helvetica,sans-Serif" font-weight="bold" font-size="14.00">Recording</text>
<text text-anchor="start" x="543.5" y="-141.26" font-family="Helvetica,sans-Serif" font-size="11.00">.parquet file</text>
</g>
<!-- record&#45;&gt;recording -->
<g id="edge14" class="edge">
<title>record&#45;&gt;recording</title>
<path fill="none" stroke="#607d8b" d="M389.49,-261.03C424.18,-241.19 473.5,-212.98 512.79,-190.51"/>
<polygon fill="#607d8b" stroke="#607d8b" points="514.57,-193.52 521.52,-185.51 511.1,-187.44 514.57,-193.52"/>
</g>
<!-- hindsight&#45;&gt;recording -->
<g id="edge15" class="edge">
<title>hindsight&#45;&gt;recording</title>
<path fill="none" stroke="#607d8b" d="M576.5,-255.11C576.5,-238.33 576.5,-217.2 576.5,-198.61"/>
<polygon fill="#607d8b" stroke="#607d8b" points="580,-198.59 576.5,-188.59 573,-198.59 580,-198.59"/>
<text text-anchor="middle" x="625.5" y="-218.53" font-family="Helvetica,sans-Serif" font-size="12.00">dump on trigger</text>
</g>
<!-- mcp -->
<g id="node7" class="node">
<title>mcp</title>
<path fill="#e3f2fd" stroke="#1976d2" stroke-width="1.4" d="M414.5,-51C414.5,-51 304.5,-51 304.5,-51 298.5,-51 292.5,-45 292.5,-39 292.5,-39 292.5,-12 292.5,-12 292.5,-6 298.5,0 304.5,0 304.5,0 414.5,0 414.5,0 420.5,0 426.5,-6 426.5,-12 426.5,-12 426.5,-39 426.5,-39 426.5,-45 420.5,-51 414.5,-51"/>
<text text-anchor="start" x="312.5" y="-29.3" font-family="Helvetica,sans-Serif" font-weight="bold" font-size="14.00">rezolus mcp</text>
<text text-anchor="start" x="309.5" y="-13.7" font-family="Helvetica,sans-Serif" font-size="11.00">AI&#45;guided analysis</text>
</g>
<!-- pqtools -->
<g id="node8" class="node">
<title>pqtools</title>
<path fill="#e3f2fd" stroke="#1976d2" stroke-width="1.4" d="M679,-51C679,-51 510,-51 510,-51 504,-51 498,-45 498,-39 498,-39 498,-12 498,-12 498,-6 504,0 510,0 510,0 679,0 679,0 685,0 691,-6 691,-12 691,-12 691,-39 691,-39 691,-45 685,-51 679,-51"/>
<text text-anchor="start" x="533" y="-29.3" font-family="Helvetica,sans-Serif" font-weight="bold" font-size="14.00">rezolus parquet</text>
<text text-anchor="start" x="515.5" y="-13.7" font-family="Helvetica,sans-Serif" font-size="11.00">inspect · annotate · combine</text>
</g>
<!-- mcp&#45;&gt;pqtools -->
<!-- pqtools&#45;&gt;browser -->
<!-- recording&#45;&gt;view -->
<!-- recording&#45;&gt;view -->
<g id="edge16" class="edge">
<title>recording&#45;&gt;view</title>
<path fill="none" stroke="#8d6e63" d="M633.13,-153.06C667.13,-153.06 711.09,-153.06 749.53,-153.06"/>
<polygon fill="#8d6e63" stroke="#8d6e63" points="749.69,-156.56 759.69,-153.06 749.69,-149.56 749.69,-156.56"/>
<text text-anchor="middle" x="696.5" y="-159.46" font-family="Helvetica,sans-Serif" font-size="12.00">open recording</text>
</g>
<!-- recording&#45;&gt;mcp -->
<g id="edge17" class="edge">
<title>recording&#45;&gt;mcp</title>
<path fill="none" stroke="#8d6e63" d="M522.02,-120.54C487.91,-100.8 444.23,-75.53 410.75,-56.15"/>
<polygon fill="#8d6e63" stroke="#8d6e63" points="412.44,-53.09 402.03,-51.11 408.93,-59.15 412.44,-53.09"/>
<text text-anchor="middle" x="491.5" y="-81.4" font-family="Helvetica,sans-Serif" font-size="12.00">analyze</text>
</g>
<!-- recording&#45;&gt;pqtools -->
<g id="edge18" class="edge">
<title>recording&#45;&gt;pqtools</title>
<path fill="none" stroke="#8d6e63" d="M581.42,-117.75C583.94,-100.15 587.01,-78.76 589.54,-61.11"/>
<polygon fill="#8d6e63" stroke="#8d6e63" points="593,-61.61 590.96,-51.21 586.07,-60.62 593,-61.61"/>
<text text-anchor="middle" x="611.5" y="-81.4" font-family="Helvetica,sans-Serif" font-size="12.00">manage</text>
</g>
<!-- grafana&#45;&gt;recording -->
<!-- llm -->
<g id="node12" class="node">
<title>llm</title>
<path fill="#eceff1" stroke="#90a4ae" stroke-width="1.4" d="M209,-43.5C209,-43.5 108,-43.5 108,-43.5 102,-43.5 96,-37.5 96,-31.5 96,-31.5 96,-19.5 96,-19.5 96,-13.5 102,-7.5 108,-7.5 108,-7.5 209,-7.5 209,-7.5 215,-7.5 221,-13.5 221,-19.5 221,-19.5 221,-31.5 221,-31.5 221,-37.5 215,-43.5 209,-43.5"/>
<text text-anchor="start" x="112" y="-22.8" font-family="Helvetica,sans-Serif" font-weight="bold" font-size="14.00">AI assistant</text>
</g>
<!-- llm&#45;&gt;mcp -->
<!-- llm&#45;&gt;mcp -->
<g id="edge20" class="edge">
<title>llm&#45;&gt;mcp</title>
<path fill="none" stroke="#607d8b" d="M231.5,-25.5C247.96,-25.5 265.48,-25.5 282.11,-25.5"/>
<polygon fill="#607d8b" stroke="#607d8b" points="231.27,-22 221.27,-25.5 231.27,-29 231.27,-22"/>
<polygon fill="#607d8b" stroke="#607d8b" points="282.33,-29 292.33,-25.5 282.33,-22 282.33,-29"/>
<text text-anchor="middle" x="256.75" y="-31.9" font-family="Helvetica,sans-Serif" font-size="12.00">ask</text>
</g>
</g>
</svg>
